<svg class="animated" id="freepik_stories-advantages" xmlns="http://www.w3.org/2000/svg" viewBox="0 0 500 500" version="1.1" xmlns:xlink="http://www.w3.org/1999/xlink" xmlns:svgjs="http://svgjs.com/svgjs"><style>svg#freepik_stories-advantages:not(.animated) .animable {opacity: 0;}svg#freepik_stories-advantages.animated #freepik--Floor--inject-601 {animation: 3s Infinite  linear wind;animation-delay: 0s;}svg#freepik_stories-advantages.animated #freepik--Icons--inject-601 {animation: 6s Infinite  linear wind;animation-delay: 0s;}            @keyframes wind {                0% {                    transform: rotate( 0deg );                }                25% {                    transform: rotate( 1deg );                }                75% {                    transform: rotate( -1deg );                }            }        </style><g id="freepik--Floor--inject-601" class="animable" style="transform-origin: 249.993px 343.37px;"><path id="freepik--floor--inject-601" d="M83.53,247.26c-91.94,53.08-91.93,139.14,0,192.22s241,53.08,332.93,0,91.93-139.14,0-192.22S175.47,194.18,83.53,247.26Z" style="fill: rgb(250, 250, 250); transform-origin: 249.993px 343.37px;" class="animable"></path></g><g id="freepik--Shadows--inject-601" class="animable" style="transform-origin: 270.185px 398.265px;"><ellipse id="freepik--Shadow--inject-601" cx="417.46" cy="416.02" rx="69.96" ry="40.39" style="fill: rgb(224, 224, 224); transform-origin: 417.46px 416.02px;" class="animable"></ellipse><path id="freepik--shadow--inject-601" d="M231.36,338.53,54.27,440.72c-1.76,1-1.76,2.67,0,3.69L77.85,458a7.1,7.1,0,0,0,6.38,0L261.33,355.8c1.76-1,1.76-2.67,0-3.69l-23.58-13.58A7.12,7.12,0,0,0,231.36,338.53Z" style="fill: rgb(224, 224, 224); transform-origin: 157.8px 398.265px;" class="animable"></path></g><g id="freepik--Gears--inject-601" class="animable" style="transform-origin: 244.52px 431.965px;"><g id="freepik--gears--inject-601" class="animable" style="transform-origin: 244.52px 431.965px;"><path d="M241.44,421.35,233.57,425a2.85,2.85,0,0,1-1.8.11,46.12,46.12,0,0,0-6.11-1.45,1.49,1.49,0,0,1-1.14-1.11l-1-5.18a1.22,1.22,0,0,0-1.15-1H211a1.2,1.2,0,0,0-1.14,1l-1,5.18a1.49,1.49,0,0,1-1.14,1.11,45.61,45.61,0,0,0-6.1,1.45,2.88,2.88,0,0,1-1.81-.11l-7.86-3.64a2.07,2.07,0,0,0-1.72.07l-7.77,4.48a.58.58,0,0,0-.05,1l6.15,4.43a.81.81,0,0,1,.12,1.26,15.92,15.92,0,0,0-2.2,3.05,1.91,1.91,0,0,1-1.4.93l-10.34.65a1.06,1.06,0,0,0-1,1v5.77a1,1,0,0,0,1,1l10.34.66a1.89,1.89,0,0,1,1.4.93,15.56,15.56,0,0,0,2.2,3,.83.83,0,0,1-.12,1.27l-6.15,4.42a.58.58,0,0,0,.05,1.05l7.77,4.49a2.1,2.1,0,0,0,1.72.07l7.86-3.64a2.85,2.85,0,0,1,1.8-.11,46.12,46.12,0,0,0,6.11,1.45,1.49,1.49,0,0,1,1.14,1.11l1,5.18a1.21,1.21,0,0,0,1.15,1h11.42a1.21,1.21,0,0,0,1.15-1l1-5.18a1.49,1.49,0,0,1,1.14-1.11,46.12,46.12,0,0,0,6.11-1.45,2.85,2.85,0,0,1,1.8.11l7.87,3.64a2.08,2.08,0,0,0,1.71-.07l7.77-4.49a.58.58,0,0,0,.05-1.05L244.82,451a.83.83,0,0,1-.12-1.27,15.56,15.56,0,0,0,2.2-3,1.9,1.9,0,0,1,1.4-.93l10.34-.66a1,1,0,0,0,1-1v-5.77a1.05,1.05,0,0,0-1-1l-10.34-.65a1.9,1.9,0,0,1-1.4-.93,15.92,15.92,0,0,0-2.2-3.05.81.81,0,0,1,.12-1.26L251,427a.58.58,0,0,0-.05-1l-7.77-4.48A2.08,2.08,0,0,0,241.44,421.35ZM229.8,433.63c7.24,4.18,7.24,11,0,15.14s-19,4.18-26.23,0-7.25-11,0-15.14S222.55,429.45,229.8,433.63Z" style="fill: rgb(230, 230, 230); transform-origin: 216.69px 441.125px;" id="el66qwsbhrjqs" class="animable"></path><path d="M302,401.71l-5.83,2.7a2.12,2.12,0,0,1-1.34.08,34.62,34.62,0,0,0-4.52-1.07,1.13,1.13,0,0,1-.85-.82l-.72-3.84a.92.92,0,0,0-.86-.71h-8.45a.9.9,0,0,0-.85.71l-.73,3.84a1.13,1.13,0,0,1-.85.82,34.62,34.62,0,0,0-4.52,1.07,2.09,2.09,0,0,1-1.33-.08l-5.83-2.7a1.59,1.59,0,0,0-1.28.06l-5.75,3.32a.43.43,0,0,0,0,.78l4.56,3.28a.6.6,0,0,1,.08.93,11.83,11.83,0,0,0-1.62,2.26,1.43,1.43,0,0,1-1,.69l-7.66.48a.78.78,0,0,0-.72.77v4.27a.77.77,0,0,0,.72.76l7.66.49a1.4,1.4,0,0,1,1,.69,11.47,11.47,0,0,0,1.62,2.25.61.61,0,0,1-.08.94L258.21,427a.43.43,0,0,0,0,.78l5.75,3.32a1.57,1.57,0,0,0,1.27.06l5.83-2.71a2.27,2.27,0,0,1,1.34-.08,33.1,33.1,0,0,0,4.52,1.08,1.13,1.13,0,0,1,.85.82l.73,3.84a.9.9,0,0,0,.85.71h8.45a.92.92,0,0,0,.86-.71l.72-3.84a1.13,1.13,0,0,1,.85-.82,33.1,33.1,0,0,0,4.52-1.08,2.27,2.27,0,0,1,1.34.08l5.83,2.71a1.56,1.56,0,0,0,1.27-.06l5.75-3.32a.43.43,0,0,0,0-.78l-4.56-3.28a.61.61,0,0,1-.08-.94,11.47,11.47,0,0,0,1.62-2.25,1.4,1.4,0,0,1,1-.69l7.66-.49a.77.77,0,0,0,.72-.76v-4.27a.78.78,0,0,0-.72-.77L307,413a1.39,1.39,0,0,1-1-.69,11.9,11.9,0,0,0-1.63-2.26.6.6,0,0,1,.08-.93l4.56-3.28a.43.43,0,0,0,0-.78l-5.75-3.32A1.56,1.56,0,0,0,302,401.71Zm-8.63,9.09c5.37,3.1,5.37,8.13,0,11.22s-14.06,3.1-19.43,0-5.37-8.12,0-11.22S288,407.71,293.33,410.8Z" style="fill: rgb(230, 230, 230); transform-origin: 283.615px 416.435px;" id="ely73ze0jmvas" class="animable"></path></g></g><g id="freepik--Plants--inject-601" class="animable" style="transform-origin: 47.77px 404.465px;"><g id="freepik--plants--inject-601" class="animable" style="transform-origin: 47.77px 404.465px;"><path d="M63.77,448.41,74.91,442s6.64-27.57,4-52.38c-3.71-34.87-26.67-48-35.4-45s-11.26,13.16,3.19,33.93C55.21,390.79,65.68,416.31,63.77,448.41Z" style="fill: rgb(28, 230, 129); transform-origin: 57.9706px 396.308px;" id="elgvpvug61m0j" class="animable"></path><g id="el8xz1dmsdx9r"><g style="opacity: 0.65; transform-origin: 57.9706px 396.308px;" class="animable"><path d="M63.77,448.41,74.91,442s6.64-27.57,4-52.38c-3.71-34.87-26.67-48-35.4-45s-11.26,13.16,3.19,33.93C55.21,390.79,65.68,416.31,63.77,448.41Z" style="fill: rgb(255, 255, 255); transform-origin: 57.9706px 396.308px;" id="elvybjl27aoyg" class="animable"></path></g></g><path d="M68.39,434.86h-.11a.77.77,0,0,1-.62-.9c6.11-32.17-5.12-68.32-19-83.36a.77.77,0,0,1,0-1.09.78.78,0,0,1,1.1,0c14.17,15.32,25.62,52.06,19.42,84.7A.77.77,0,0,1,68.39,434.86Z" style="fill: rgb(255, 255, 255); transform-origin: 59.6694px 392.072px;" id="elj8q2u9ue15" class="animable"></path><path d="M35.71,464.6c-1.66.85-6.09-2.94-7.33-3.86a15.54,15.54,0,0,1-4.84-6.16,14.49,14.49,0,0,1-.84-8.75A34.62,34.62,0,0,1,24,441.26c.5-1.47,1-2.95,1.52-4.42a11.51,11.51,0,0,0,.88-4.49c-.24-3.09-2.85-5.38-5.23-7.36-2.64-2.19-5.35-5-5.15-8.73.15-2.85,1.76-5.42,3.64-7.57s4.08-4,5.79-6.3a9,9,0,0,0,2.15-5.65,9.49,9.49,0,0,0-1.07-3.65c-1.18-2.47-2.79-4.76-3.56-7.39s-.48-5.83,1.63-7.58c1.73-1.44,4.2-1.52,6.44-1.26a14.58,14.58,0,0,1,5.8,2.38c5.7,3.55,8.7,10.67,14.8,13.49,2.35,1.09,5,1.43,7.44,2.22s5,2.2,6,4.57c2,4.68-2.47,10.09-1.11,15,1.2,4.36,5.29,6.21,7.43,10.19a9.13,9.13,0,0,1,.81,5.67,27.05,27.05,0,0,1-2.84,9.36,85,85,0,0,1-5.63,8.66S36,464.47,35.71,464.6Z" style="fill: rgb(28, 230, 129); transform-origin: 44.1812px 420.734px;" id="el11bzgebv9xrq" class="animable"></path><g id="elgjxlhkich46"><g style="opacity: 0.3; transform-origin: 44.1812px 420.734px;" class="animable"><path d="M35.71,464.6c-1.66.85-6.09-2.94-7.33-3.86a15.54,15.54,0,0,1-4.84-6.16,14.49,14.49,0,0,1-.84-8.75A34.62,34.62,0,0,1,24,441.26c.5-1.47,1-2.95,1.52-4.42a11.51,11.51,0,0,0,.88-4.49c-.24-3.09-2.85-5.38-5.23-7.36-2.64-2.19-5.35-5-5.15-8.73.15-2.85,1.76-5.42,3.64-7.57s4.08-4,5.79-6.3a9,9,0,0,0,2.15-5.65,9.49,9.49,0,0,0-1.07-3.65c-1.18-2.47-2.79-4.76-3.56-7.39s-.48-5.83,1.63-7.58c1.73-1.44,4.2-1.52,6.44-1.26a14.58,14.58,0,0,1,5.8,2.38c5.7,3.55,8.7,10.67,14.8,13.49,2.35,1.09,5,1.43,7.44,2.22s5,2.2,6,4.57c2,4.68-2.47,10.09-1.11,15,1.2,4.36,5.29,6.21,7.43,10.19a9.13,9.13,0,0,1,.81,5.67,27.05,27.05,0,0,1-2.84,9.36,85,85,0,0,1-5.63,8.66S36,464.47,35.71,464.6Z" style="fill: rgb(255, 255, 255); transform-origin: 44.1812px 420.734px;" id="elyw6opl6g5e" class="animable"></path></g></g><path d="M51.85,456.19h0a.72.72,0,0,1-.67-.79c2.66-28.93-9.38-61.63-18.85-71.43a.74.74,0,0,1,0-1,.73.73,0,0,1,1,0c9.66,10,22,43.24,19.25,72.58A.72.72,0,0,1,51.85,456.19Z" style="fill: rgb(255, 255, 255); transform-origin: 42.553px 419.481px;" id="elhlalw4zeoyk" class="animable"></path><path d="M49,420.52a.78.78,0,0,1-.21,0C39.59,417.13,28,416,27.89,416a.72.72,0,0,1-.66-.79.7.7,0,0,1,.79-.66c.12,0,11.89,1.12,21.24,4.53a.73.73,0,0,1-.29,1.42Z" style="fill: rgb(255, 255, 255); transform-origin: 38.4926px 417.536px;" id="el4zjjdex6evi" class="animable"></path></g></g><g id="freepik--List--inject-601" class="animable" style="transform-origin: 170.245px 238.357px;"><g id="freepik--Clipboard--inject-601" class="animable" style="transform-origin: 170.245px 238.357px;"><g id="freepik--Board--inject-601" class="animable" style="transform-origin: 167.075px 238.357px;"><g id="freepik--Window--inject-601" class="animable" style="transform-origin: 167.075px 238.357px;"><path d="M248.67,27.55,78.45,125.71a7,7,0,0,0-3.18,5.51V443.3a7,7,0,0,0,3.19,5.5l.64.37a7.1,7.1,0,0,0,6.38,0L255.7,350.87a7,7,0,0,0,3.18-5.52V33.41a7,7,0,0,0-3.19-5.5l-.65-.37A7.07,7.07,0,0,0,248.67,27.55Z" style="fill: rgb(28, 230, 129); transform-origin: 167.075px 238.357px;" id="el86223yv3eiu" class="animable"></path><g id="elev9nayq4spm"><path d="M248.67,27.55,78.45,125.71a7,7,0,0,0-3.18,5.51V443.3a7,7,0,0,0,3.19,5.5l.64.37a7.1,7.1,0,0,0,6.38,0L255.7,350.87a7,7,0,0,0,3.18-5.52V33.41a7,7,0,0,0-3.19-5.5l-.65-.37A7.07,7.07,0,0,0,248.67,27.55Z" style="opacity: 0.45; transform-origin: 167.075px 238.357px;" class="animable"></path></g><path d="M258.88,345.58c0,2.8-2,4.58-4.4,6L86.69,448.43c-2.42,1.4-4.4.27-4.4-2.54V136.62h0A8.74,8.74,0,0,1,86.67,129L254.48,32.13a2.93,2.93,0,0,1,4.4,2.54h0Z" style="fill: rgb(28, 230, 129); transform-origin: 170.585px 240.382px;" id="ele0srx0iwmps" class="animable"></path><g id="eld3ukdsrz5ew"><path d="M258.88,345.58c0,2.8-2,4.58-4.4,6L86.69,448.43c-2.42,1.4-4.4.27-4.4-2.54V136.62h0A8.74,8.74,0,0,1,86.67,129L254.48,32.13a2.93,2.93,0,0,1,4.4,2.54h0Z" style="opacity: 0.3; transform-origin: 170.585px 240.382px;" class="animable"></path></g><path d="M258.88,33.41v1.25a2.94,2.94,0,0,0-4.41-2.53L86.67,129a8.55,8.55,0,0,0-3.2,3.2.42.42,0,0,0,0,.1l-7.27-4.2a6.6,6.6,0,0,1,2.29-2.42L248.67,27.55a7.11,7.11,0,0,1,6.37,0l.65.37A7,7,0,0,1,258.88,33.41Z" style="fill: rgb(28, 230, 129); transform-origin: 167.54px 79.5484px;" id="el20pzqkh9n9j" class="animable"></path><g id="elyciez3bj7u"><path d="M258.88,33.41v1.25a2.94,2.94,0,0,0-4.41-2.53L86.67,129a8.55,8.55,0,0,0-3.2,3.2.42.42,0,0,0,0,.1l-7.27-4.2a6.6,6.6,0,0,1,2.29-2.42L248.67,27.55a7.11,7.11,0,0,1,6.37,0l.65.37A7,7,0,0,1,258.88,33.41Z" style="opacity: 0.2; transform-origin: 167.54px 79.5484px;" class="animable"></path></g></g></g><g id="freepik--shadow--inject-601"><path d="M254.73,332.69c0,2.88-2,4.72-4.53,6.16L91.62,430.41c-2.5,1.44-4.54.28-4.54-2.62V152.85h0A9,9,0,0,1,91.59,145L250.2,53.44a3,3,0,0,1,4.53,2.62V332.69Z" style="opacity: 0.25; transform-origin: 170.905px 242.024px;" class="animable"></path></g><g id="freepik--Form--inject-601" class="animable" style="transform-origin: 172.26px 243.745px;"><g id="freepik--Paper--inject-601" class="animable" style="transform-origin: 172.26px 243.745px;"><path d="M91.14,148.47l158-91.23a3,3,0,0,1,2.71,0l1.52.88a3,3,0,0,1,1.35,2.35V336.68a3,3,0,0,1-1.35,2.34l-158,91.23a3,3,0,0,1-2.71,0l-1.53-.88A3,3,0,0,1,89.79,427V150.81A3,3,0,0,1,91.14,148.47Z" style="fill: rgb(245, 245, 245); transform-origin: 172.255px 243.745px;" id="elu4ro2koikqa" class="animable"></path><path d="M95.05,430.4a2.44,2.44,0,0,1-.5.13l-.26,0a3.75,3.75,0,0,1-.82,0,2.62,2.62,0,0,1-.5-.13l-.3-.15-1.52-.87A3,3,0,0,1,89.79,427V150.82a2.64,2.64,0,0,1,.4-1.33l4.23,2.43a2.87,2.87,0,0,0-.4,1.34V429.47C94,430.21,94.46,430.57,95.05,430.4Z" style="fill: rgb(224, 224, 224); transform-origin: 92.42px 290.021px;" id="elh5mzae1sves" class="animable"></path><path d="M253.38,58.12l-1.52-.88a3,3,0,0,0-2.71,0l-158,91.23a3,3,0,0,0-1.35,2.34v17.06L94,170.33,254.73,77.54V60.47A3,3,0,0,0,253.38,58.12Z" style="fill: rgb(28, 230, 129); transform-origin: 172.265px 113.623px;" id="els714z94vx6" class="animable"></path><g id="el9xqii5mzf"><path d="M253.38,58.12l-1.52-.88a3,3,0,0,0-2.71,0l-158,91.23a3,3,0,0,0-1.35,2.34v17.06L94,170.33,254.73,77.54V60.47A3,3,0,0,0,253.38,58.12Z" style="fill: rgb(255, 255, 255); opacity: 0.4; transform-origin: 172.265px 113.623px;" class="animable"></path></g><path d="M254.68,60.06c-.16-.55-.68-.73-1.3-.38l-158,91.23a2.67,2.67,0,0,0-1,1l-4.23-2.44a2.67,2.67,0,0,1,1-1l158-91.22a2.93,2.93,0,0,1,2.7,0l1.53.87A3,3,0,0,1,254.68,60.06Z" style="fill: rgb(28, 230, 129); transform-origin: 172.415px 104.415px;" id="els4ywxwfgl9i" class="animable"></path><g id="elnai0hrkz30s"><path d="M254.68,60.06c-.16-.55-.68-.73-1.3-.38l-158,91.23a2.67,2.67,0,0,0-1,1l-4.23-2.44a2.67,2.67,0,0,1,1-1l158-91.22a2.93,2.93,0,0,1,2.7,0l1.53.87A3,3,0,0,1,254.68,60.06Z" style="fill: rgb(255, 255, 255); opacity: 0.6; transform-origin: 172.415px 104.415px;" class="animable"></path></g><path d="M89.79,150.82v17.07L94,170.33V153.25a2.84,2.84,0,0,1,.4-1.33l-4.23-2.44A2.7,2.7,0,0,0,89.79,150.82Z" style="fill: rgb(28, 230, 129); transform-origin: 92.095px 159.905px;" id="elb0b6xdevql9" class="animable"></path></g></g><g id="freepik--Clip--inject-601" class="animable" style="transform-origin: 170.599px 103.053px;"><g id="freepik--shadow--inject-601"><g style="opacity: 0.25; transform-origin: 170.049px 102.573px;" class="animable"><path d="M218.18,68.67V82.25a11.63,11.63,0,0,1-5.33,9.22l-26.29,15.18c-1.3.75-2,2.25-2.82,3.82a15,15,0,0,1-2,3.32c-2,2.32-6.5,4.73-9.64,5.74a18.51,18.51,0,0,1-3.15.72c-.4.07-.84.13-1.3.18-2.86.39-6.44.87-8.53,2.09l-30.77,17.75a5.39,5.39,0,0,1-2.68.81,3.58,3.58,0,0,1-1.8-.47,4.39,4.39,0,0,1-2-4V123a11.62,11.62,0,0,1,5.32-9.22l10.34-6a.35.35,0,0,1,.14-.06,1.09,1.09,0,0,1,1.08,1.87.27.27,0,0,1-.12.09l-10.33,6a9.51,9.51,0,0,0-4.23,7.31v13.59a1.85,1.85,0,0,0,3.12,1.79L158,120.6c2.47-1.43,6.28-1.94,9.34-2.35l1.28-.18a16.81,16.81,0,0,0,2.8-.65c2.79-.88,6.94-3.14,8.64-5.08a13,13,0,0,0,1.71-2.85c.9-1.81,1.82-3.67,3.7-4.75l26.29-15.18A9.54,9.54,0,0,0,216,82.25V68.67a1.86,1.86,0,0,0-3.13-1.8L203.9,72a9.35,9.35,0,0,0-1.13-1.9l9-5.18a4,4,0,0,1,6.43,3.71Z" id="el3uge6764u5a" class="animable" style="transform-origin: 170.049px 102.573px;"></path></g></g><g id="freepik--clip--inject-601" class="animable" style="transform-origin: 171.172px 103.554px;"><path d="M199,68.92h0a2.75,2.75,0,0,1,2.78.26A8.65,8.65,0,0,1,205.69,76a2.75,2.75,0,0,1-1.16,2.54h0l-62.38,36-5.53-9.57Z" style="fill: rgb(55, 71, 79); transform-origin: 171.162px 91.5995px;" id="elpr4jdsncmzd" class="animable"></path><path d="M139.4,109.75l65.15-37.63a8,8,0,0,0-2.77-2.94c-.13-.07-.25-.11-.38-.17l-64.14,37Z" style="fill: rgb(69, 90, 100); transform-origin: 170.905px 89.38px;" id="elfvtxfn192ce" class="animable"></path><path d="M139.4,105.21c-2.16-1.25-3.91-.24-3.91,2.25a8.65,8.65,0,0,0,3.91,6.77c2.16,1.25,3.91.24,3.91-2.26A8.61,8.61,0,0,0,139.4,105.21Z" style="fill: rgb(38, 50, 56); transform-origin: 139.4px 109.72px;" id="elaiifihaoalo" class="animable"></path><path d="M219.29,69.63V83.22A11.63,11.63,0,0,1,214,92.44l-26.29,15.17c-1.3.75-2,2.25-2.82,3.83a15,15,0,0,1-2,3.32c-2,2.31-6.5,4.73-9.64,5.73a17.55,17.55,0,0,1-3.16.73c-.39.07-.83.12-1.29.18-2.86.38-6.44.87-8.53,2.08l-30.77,17.76a5.4,5.4,0,0,1-2.68.8,3.55,3.55,0,0,1-1.8-.46,4.4,4.4,0,0,1-2-4.05V124a11.6,11.6,0,0,1,5.32-9.22l10.34-6a.46.46,0,0,1,.14-.05,1.08,1.08,0,0,1,1.08,1.86.28.28,0,0,1-.12.1l-10.33,6A9.49,9.49,0,0,0,125.2,124v13.58a1.85,1.85,0,0,0,3.12,1.8l30.77-17.77c2.47-1.42,6.29-1.94,9.35-2.35.45,0,.88-.12,1.27-.17a16.69,16.69,0,0,0,2.81-.65c2.79-.89,6.93-3.15,8.64-5.09a12.88,12.88,0,0,0,1.71-2.84c.9-1.81,1.82-3.68,3.7-4.76l26.29-15.17a9.54,9.54,0,0,0,4.22-7.31V69.63a1.85,1.85,0,0,0-3.12-1.8L205,73a9.26,9.26,0,0,0-1.13-1.9l9-5.18a4,4,0,0,1,6.43,3.7Z" style="fill: rgb(69, 90, 100); transform-origin: 171.172px 103.554px;" id="eljejey0rd9p" class="animable"></path></g></g><g id="freepik--Title--inject-601" class="animable" style="transform-origin: 169.759px 148.087px;"><path d="M122.88,166.71c.18-.1.31-.11.39,0a.86.86,0,0,1,.23.42l4,11.42a.52.52,0,0,1,0,.14,1.16,1.16,0,0,1-.13.49.83.83,0,0,1-.31.35l-1.17.68c-.22.12-.37.15-.46.08a.56.56,0,0,1-.18-.26l-.7-2-5.14,3-.7,2.81a3.08,3.08,0,0,1-.18.46,1.05,1.05,0,0,1-.46.45l-1.17.68a.25.25,0,0,1-.31,0,.37.37,0,0,1-.13-.34.88.88,0,0,1,0-.16l4-16a3.81,3.81,0,0,1,.23-.68,1,1,0,0,1,.39-.41Zm.9,9L122,170.57l-1.79,7.22Z" style="fill: rgb(69, 90, 100); transform-origin: 121.98px 176.058px;" id="el65yn8axef44" class="animable"></path><path d="M133.45,160.61a5.49,5.49,0,0,1,2.09-.78,2.05,2.05,0,0,1,1.49.35,2.73,2.73,0,0,1,.91,1.36,8.15,8.15,0,0,1,.38,2.25q.06,1.58,0,3.21a13.84,13.84,0,0,1-.38,2.7,10.53,10.53,0,0,1-.91,2.41,9.17,9.17,0,0,1-1.45,2,8.81,8.81,0,0,1-2.05,1.6l-4.1,2.37a.25.25,0,0,1-.31,0,.37.37,0,0,1-.13-.33v-14a1,1,0,0,1,.13-.48.87.87,0,0,1,.31-.36Zm2.67,4.45a4.31,4.31,0,0,0-.2-1.17,1.54,1.54,0,0,0-.51-.75,1.16,1.16,0,0,0-.84-.21,3.06,3.06,0,0,0-1.2.44l-2.18,1.26v9.77l2.26-1.31a4.77,4.77,0,0,0,1.16-.91,5.69,5.69,0,0,0,1.31-2.49,7.59,7.59,0,0,0,.2-1.42Q136.2,166.64,136.12,165.06Z" style="fill: rgb(69, 90, 100); transform-origin: 133.669px 168.97px;" id="el042198unpcxw" class="animable"></path><path d="M144.21,165.3,147,153.36a2.69,2.69,0,0,1,.17-.46.82.82,0,0,1,.37-.39l1.23-.72a.27.27,0,0,1,.31,0,.4.4,0,0,1,.13.34v.07a.94.94,0,0,1,0,.16l-3.65,15.76a2.64,2.64,0,0,1-.23.69.91.91,0,0,1-.39.41l-1.3.75c-.17.1-.3.11-.39,0a.89.89,0,0,1-.23-.42L139.3,158a.79.79,0,0,1,0-.12v-.08a1.08,1.08,0,0,1,.13-.48.87.87,0,0,1,.31-.36l1.24-.71c.16-.1.29-.1.37,0a.62.62,0,0,1,.17.26Z" style="fill: rgb(69, 90, 100); transform-origin: 144.256px 160.895px;" id="elqkfacnxt2cp" class="animable"></path><path d="M155.41,147.93c.18-.1.31-.11.39,0a.81.81,0,0,1,.23.42l4,11.42a.52.52,0,0,1,0,.14,1.16,1.16,0,0,1-.13.49.9.9,0,0,1-.31.35l-1.17.68c-.22.12-.37.15-.46.08a.56.56,0,0,1-.18-.26l-.7-2-5.14,3-.7,2.81a3.08,3.08,0,0,1-.18.46,1.11,1.11,0,0,1-.46.45l-1.17.68a.25.25,0,0,1-.31,0,.39.39,0,0,1-.13-.34.44.44,0,0,1,0-.16l4-16a3.15,3.15,0,0,1,.23-.68,1,1,0,0,1,.39-.41Zm.9,9-1.79-5.15L152.73,159Z" style="fill: rgb(69, 90, 100); transform-origin: 154.509px 157.278px;" id="elkgsc7v41t6" class="animable"></path><path d="M168.91,155.33c-.18.11-.33.13-.42,0a1,1,0,0,1-.21-.18l-4.56-6.4v8.95a1.08,1.08,0,0,1-.13.48.87.87,0,0,1-.31.36l-1.32.76a.25.25,0,0,1-.31,0,.37.37,0,0,1-.13-.33V145a1,1,0,0,1,.13-.48.87.87,0,0,1,.31-.36l1.14-.66c.18-.1.32-.12.42,0a1,1,0,0,1,.21.18l4.56,6.4v-8.95a1.08,1.08,0,0,1,.13-.48.87.87,0,0,1,.31-.36l1.32-.76a.25.25,0,0,1,.31,0,.37.37,0,0,1,.13.33v14a1,1,0,0,1-.13.48.87.87,0,0,1-.31.36Z" style="fill: rgb(69, 90, 100); transform-origin: 166.005px 149.415px;" id="el0u0x4co0kfbi" class="animable"></path><path d="M180.62,133.38a.25.25,0,0,1,.31,0,.39.39,0,0,1,.13.33v1.54a1.12,1.12,0,0,1-.13.49.77.77,0,0,1-.31.35l-2.93,1.7v11.89a1.16,1.16,0,0,1-.13.49.83.83,0,0,1-.31.35l-1.32.76a.27.27,0,0,1-.31,0,.4.4,0,0,1-.13-.34V139.06l-2.93,1.69a.25.25,0,0,1-.31,0,.38.38,0,0,1-.13-.33v-1.55a1,1,0,0,1,.13-.48.87.87,0,0,1,.31-.36Z" style="fill: rgb(69, 90, 100); transform-origin: 176.59px 142.328px;" id="el1a8rinn1qlc" class="animable"></path><path d="M186.88,129.76c.18-.1.31-.11.39,0a.81.81,0,0,1,.23.42l4,11.42a.52.52,0,0,1,0,.14,1.16,1.16,0,0,1-.13.49.83.83,0,0,1-.31.35l-1.17.68c-.22.12-.37.15-.46.08a.56.56,0,0,1-.18-.26l-.7-2-5.14,3-.7,2.81a3.08,3.08,0,0,1-.18.46,1.05,1.05,0,0,1-.46.45l-1.17.68a.25.25,0,0,1-.31,0,.39.39,0,0,1-.13-.34.44.44,0,0,1,0-.16l4-16a3.81,3.81,0,0,1,.23-.68,1,1,0,0,1,.39-.41Zm.9,9L186,133.62l-1.79,7.22Z" style="fill: rgb(69, 90, 100); transform-origin: 185.979px 139.108px;" id="elul0zdb9fnxb" class="animable"></path><path d="M192.35,132.23a12.34,12.34,0,0,1,.36-2.59,10.55,10.55,0,0,1,.95-2.39,9.85,9.85,0,0,1,1.52-2.07,9.31,9.31,0,0,1,2.11-1.64,5.46,5.46,0,0,1,2.33-.86,2.4,2.4,0,0,1,1.47.32,2,2,0,0,1,.76,1,3.82,3.82,0,0,1,.26,1.08.9.9,0,0,1-.12.5.88.88,0,0,1-.32.34l-1.32.76c-.12.07-.22.09-.29,0a.33.33,0,0,1-.15-.16,2.54,2.54,0,0,0-.17-.28,1,1,0,0,0-.44-.35,1.47,1.47,0,0,0-.79-.11,3,3,0,0,0-1.22.45,5.19,5.19,0,0,0-2,2,6.23,6.23,0,0,0-.78,2.81c0,.56,0,1.15,0,1.78s0,1.22,0,1.75c0,1.19.3,1.91.78,2.17a2,2,0,0,0,2-.32,6.31,6.31,0,0,0,1.11-.81,5.09,5.09,0,0,0,.87-1.07,5.48,5.48,0,0,0,.57-1.35,6.84,6.84,0,0,0,.2-1.7v-.17l-2,1.15a.25.25,0,0,1-.31,0,.41.41,0,0,1-.13-.34v-1.54a1.16,1.16,0,0,1,.13-.49.9.9,0,0,1,.31-.35l3.75-2.16a.25.25,0,0,1,.31,0,.39.39,0,0,1,.13.33v2.39a11.24,11.24,0,0,1-.31,2.58,10.27,10.27,0,0,1-.93,2.42,9.67,9.67,0,0,1-1.55,2.13,9.55,9.55,0,0,1-2.16,1.7,5.52,5.52,0,0,1-2.15.8,2.08,2.08,0,0,1-1.51-.34,2.72,2.72,0,0,1-.93-1.34,7.62,7.62,0,0,1-.35-2.2c0-.27,0-.57,0-.9s0-.67,0-1,0-.69,0-1S192.34,132.51,192.35,132.23Z" style="fill: rgb(69, 90, 100); transform-origin: 197.286px 131.317px;" id="eldn5f9mll5oc" class="animable"></path><path d="M211.88,127.81a.25.25,0,0,1,.3,0,.4.4,0,0,1,.14.34v1.54a1,1,0,0,1-.14.49.88.88,0,0,1-.3.35l-7.15,4.13a.27.27,0,0,1-.31,0,.39.39,0,0,1-.13-.34v-14a1,1,0,0,1,.13-.49.9.9,0,0,1,.31-.35l7-4a.27.27,0,0,1,.31,0,.43.43,0,0,1,.12.34v1.54a1.14,1.14,0,0,1-.12.49.83.83,0,0,1-.31.35l-5.26,3v3.45l4.9-2.83a.27.27,0,0,1,.31,0,.43.43,0,0,1,.13.34v1.54a1.12,1.12,0,0,1-.13.49.83.83,0,0,1-.31.35l-4.9,2.83v3.61Z" style="fill: rgb(69, 90, 100); transform-origin: 208.304px 125.07px;" id="elitm852dzmj" class="animable"></path><path d="M218.24,111.44a5.11,5.11,0,0,1,1.92-.72,2.53,2.53,0,0,1,1.39.18,1.83,1.83,0,0,1,.84.81,2.85,2.85,0,0,1,.31,1.15.87.87,0,0,1-.12.49.85.85,0,0,1-.32.35l-1.14.66c-.18.1-.32.14-.41.1a.63.63,0,0,1-.25-.24,1.13,1.13,0,0,0-.74-.51,2.29,2.29,0,0,0-1.48.44,5,5,0,0,0-.8.59,4.18,4.18,0,0,0-.67.73,3.61,3.61,0,0,0-.45.81,2.28,2.28,0,0,0-.16.84,1.33,1.33,0,0,0,.15.72.63.63,0,0,0,.52.24,3.54,3.54,0,0,0,1-.13l1.5-.41a7.18,7.18,0,0,1,1.69-.31,2,2,0,0,1,1.15.24,1.63,1.63,0,0,1,.67.84,4.28,4.28,0,0,1,.22,1.46,6.49,6.49,0,0,1-.33,2,8.19,8.19,0,0,1-.92,2,10.32,10.32,0,0,1-1.49,1.8,9.67,9.67,0,0,1-2,1.48,6.25,6.25,0,0,1-1.74.72,3,3,0,0,1-1.47,0,1.85,1.85,0,0,1-1-.74,2.85,2.85,0,0,1-.44-1.48.81.81,0,0,1,.13-.49.9.9,0,0,1,.31-.35l1.14-.66a.58.58,0,0,1,.43-.11.4.4,0,0,1,.24.25,2.21,2.21,0,0,0,.28.4.75.75,0,0,0,.44.25,1.69,1.69,0,0,0,.69,0,4.1,4.1,0,0,0,1-.46,8.32,8.32,0,0,0,1-.64,5.44,5.44,0,0,0,.8-.79,4.59,4.59,0,0,0,.55-.88,2.31,2.31,0,0,0,.21-1,.77.77,0,0,0-.23-.65.9.9,0,0,0-.69-.12,6.94,6.94,0,0,0-1.15.25c-.45.13-1,.27-1.58.41a5.25,5.25,0,0,1-1.42.2,1.53,1.53,0,0,1-1.6-1.18,5.08,5.08,0,0,1-.2-1.57,6.32,6.32,0,0,1,.33-2,8.23,8.23,0,0,1,.89-1.93,9.55,9.55,0,0,1,1.36-1.71A8.11,8.11,0,0,1,218.24,111.44Z" style="fill: rgb(69, 90, 100); transform-origin: 218.365px 119.276px;" id="el8muec8voy27" class="animable"></path></g><g id="freepik--Image--inject-601" class="animable" style="transform-origin: 185.235px 179.668px;"><g id="elokgr9k4lsq"><g style="opacity: 0.2; transform-origin: 181.485px 177.547px;" class="animable"><path d="M106.39,201.67l150.18-86.74c.63-.36,1.15-.07,1.15.67v35.83a2.56,2.56,0,0,1-1.15,2L106.39,240.16c-.63.37-1.14.07-1.14-.66V203.66A2.55,2.55,0,0,1,106.39,201.67Z" id="elq0496mvu8u" class="animable" style="transform-origin: 181.485px 177.547px;"></path></g></g><path d="M264.54,119.68a1.52,1.52,0,0,0-1.35.18L114.76,205.6a4.48,4.48,0,0,0-2,3.51v34a1.44,1.44,0,0,0,.55,1.29c-.35-.22-3.41-2-3.78-2.18a1.43,1.43,0,0,1-.58-1.3v-34a4.49,4.49,0,0,1,2-3.51l148.42-85.74a1.44,1.44,0,0,1,1.45-.14C261.16,117.73,263.82,119.24,264.54,119.68Z" style="fill: rgb(28, 230, 129); transform-origin: 186.741px 180.898px;" id="elqdif9ib39g" class="animable"></path><g id="elce007aj5rfr"><g style="opacity: 0.2; transform-origin: 187.055px 162.258px;" class="animable"><path d="M264.54,119.68c-.72-.44-3.38-2-3.71-2.15a1.44,1.44,0,0,0-1.45.14L111,203.41a4.09,4.09,0,0,0-1.43,1.51l3.8,2.2a4.12,4.12,0,0,1,1.43-1.52l148.43-85.74A1.52,1.52,0,0,1,264.54,119.68Z" style="fill: rgb(255, 255, 255); transform-origin: 187.055px 162.258px;" id="el9vjetx8yoce" class="animable"></path></g></g><path d="M114.76,205.6l148.43-85.74c1.12-.64,2-.12,2,1.17v34a4.45,4.45,0,0,1-2,3.5L114.76,244.26c-1.12.65-2,.12-2-1.17v-34A4.49,4.49,0,0,1,114.76,205.6Z" style="fill: rgb(250, 250, 250); transform-origin: 188.975px 182.062px;" id="eliuykkokpfv9" class="animable"></path><path d="M113.33,207.12l-3.8-2.2a4.13,4.13,0,0,0-.6,2v34a1.43,1.43,0,0,0,.58,1.3c.37.22,3.43,2,3.78,2.18a1.44,1.44,0,0,1-.55-1.29v-34A4.08,4.08,0,0,1,113.33,207.12Z" style="fill: rgb(28, 230, 129); transform-origin: 111.126px 224.66px;" id="el1ildk5k5vgg" class="animable"></path><g id="elb4u89sdoib7"><path d="M113.33,207.12l-3.8-2.2a4.13,4.13,0,0,0-.6,2v34a1.43,1.43,0,0,0,.58,1.3c.37.22,3.43,2,3.78,2.18a1.44,1.44,0,0,1-.55-1.29v-34A4.08,4.08,0,0,1,113.33,207.12Z" style="opacity: 0.15; transform-origin: 111.126px 224.66px;" class="animable"></path></g><path d="M264.09,120.52c.18,0,.19.46.19.51v34a3.56,3.56,0,0,1-1.56,2.69L114.29,243.45a.87.87,0,0,1-.44.15c-.18,0-.18-.46-.18-.51v-34a3.56,3.56,0,0,1,1.56-2.7l148.43-85.73a.91.91,0,0,1,.43-.16m0-.93a1.88,1.88,0,0,0-.9.27L114.76,205.6a4.49,4.49,0,0,0-2,3.51v34c0,.92.46,1.45,1.12,1.45a1.83,1.83,0,0,0,.91-.28l148.43-85.74a4.45,4.45,0,0,0,2-3.5V121c0-.91-.45-1.44-1.12-1.44Z" style="fill: rgb(28, 230, 129); transform-origin: 188.99px 182.06px;" id="elvxfxi43tdzo" class="animable"></path></g><path d="M141.33,202.67c2,1.16,3.26,3.66,3.26,7.21,0,7.11-5,15.75-11.14,19.3-3.08,1.78-5.86,1.95-7.88.78L122,227.91c-2-1.16-3.27-3.66-3.27-7.21,0-7.11,5-15.75,11.15-19.31,3.07-1.77,5.86-1.94,7.88-.78Z" style="fill: rgb(28, 230, 129); transform-origin: 131.66px 215.289px;" id="elqmm99440gb" class="animable"></path><g id="elmnthazkrr5h"><path d="M141.33,202.67c2,1.16,3.26,3.66,3.26,7.21,0,7.11-5,15.75-11.14,19.3-3.08,1.78-5.86,1.95-7.88.78L122,227.91c-2-1.16-3.27-3.66-3.27-7.21,0-7.11,5-15.75,11.15-19.31,3.07-1.77,5.86-1.94,7.88-.78Z" style="opacity: 0.2; transform-origin: 131.66px 215.289px;" class="animable"></path></g><path d="M133.45,229.18c-3.08,1.78-5.86,1.95-7.88.78s-3.26-3.66-3.26-7.21c0-7.11,5-15.75,11.14-19.3,3.08-1.78,5.86-1.95,7.88-.78s3.26,3.66,3.26,7.21C144.59,217,139.6,225.63,133.45,229.18Z" style="fill: rgb(28, 230, 129); transform-origin: 133.45px 216.315px;" id="ely072ttxned" class="animable"></path><path d="M139.37,211.3,134.65,214v-6.29c0-.88-.54-1.29-1.2-.91a2.88,2.88,0,0,0-1.2,2.29v6.3l-4.72,2.72a2.9,2.9,0,0,0-1.2,2.3c0,.88.54,1.29,1.2.9l4.72-2.72v6.29c0,.88.54,1.29,1.2.91a2.88,2.88,0,0,0,1.2-2.29v-6.3l4.72-2.72a2.9,2.9,0,0,0,1.2-2.3C140.57,211.32,140,210.91,139.37,211.3Z" style="fill: rgb(250, 250, 250); transform-origin: 133.45px 216.295px;" id="el7mv0gb64wkn" class="animable"></path><path d="M152.26,199.69l104.52-60.37a6,6,0,0,0,2.5-4.76c0-1.84-1.12-2.69-2.5-1.89L152.26,193a6,6,0,0,0-2.49,4.76C149.77,199.64,150.89,200.48,152.26,199.69Zm104.52-53L152.26,207a6,6,0,0,0-2.49,4.77c0,1.84,1.12,2.68,2.49,1.88l104.52-60.36a6,6,0,0,0,2.5-4.77h0C259.28,146.72,258.16,145.87,256.78,146.67Z" style="fill: rgb(224, 224, 224); transform-origin: 204.525px 173.161px;" id="eljv36x9dlr1k" class="animable"></path><g id="freepik--image--inject-601" class="animable" style="transform-origin: 185.22px 234.241px;"><g id="elgra4sjwrq4m"><g style="opacity: 0.2; transform-origin: 181.485px 232.123px;" class="animable"><path d="M106.39,256.25l150.18-86.74c.63-.37,1.15-.07,1.15.66V206a2.56,2.56,0,0,1-1.15,2L106.39,294.74c-.63.36-1.14.07-1.14-.67V258.24A2.55,2.55,0,0,1,106.39,256.25Z" id="eli99lubmauls" class="animable" style="transform-origin: 181.485px 232.123px;"></path></g></g><path d="M264.54,174.25a1.52,1.52,0,0,0-1.35.19L114.76,260.18a4.45,4.45,0,0,0-2,3.51v34a1.46,1.46,0,0,0,.55,1.29c-.35-.23-3.41-2-3.78-2.18a1.44,1.44,0,0,1-.58-1.3v-34a4.47,4.47,0,0,1,2-3.51l148.42-85.75a1.44,1.44,0,0,1,1.45-.13C261.16,172.31,263.82,173.81,264.54,174.25Z" style="fill: rgb(28, 230, 129); transform-origin: 186.742px 235.476px;" id="el33w0q72ssvq" class="animable"></path><g id="eluu262e0ipb"><g style="opacity: 0.2; transform-origin: 187.055px 216.836px;" class="animable"><path d="M264.54,174.25c-.72-.44-3.38-1.94-3.71-2.14a1.44,1.44,0,0,0-1.45.13L111,258a4,4,0,0,0-1.43,1.51l3.8,2.19a4.17,4.17,0,0,1,1.43-1.51l148.43-85.74A1.52,1.52,0,0,1,264.54,174.25Z" style="fill: rgb(255, 255, 255); transform-origin: 187.055px 216.836px;" id="elf3d6s7q672l" class="animable"></path></g></g><path d="M114.76,260.18l148.43-85.74c1.12-.64,2-.12,2,1.17v34a4.48,4.48,0,0,1-2,3.51L114.76,298.84c-1.12.64-2,.12-2-1.17v-34A4.47,4.47,0,0,1,114.76,260.18Z" style="fill: rgb(250, 250, 250); transform-origin: 188.975px 236.64px;" id="eli4misscmj4" class="animable"></path><path d="M113.33,261.69l-3.8-2.19a4.1,4.1,0,0,0-.6,2v34a1.44,1.44,0,0,0,.58,1.3c.37.22,3.43,2,3.78,2.18a1.46,1.46,0,0,1-.55-1.29v-34A4.11,4.11,0,0,1,113.33,261.69Z" style="fill: rgb(28, 230, 129); transform-origin: 111.127px 279.24px;" id="elznm9iogxckm" class="animable"></path><g id="elxiod5cu9kaq"><path d="M113.33,261.69l-3.8-2.19a4.1,4.1,0,0,0-.6,2v34a1.44,1.44,0,0,0,.58,1.3c.37.22,3.43,2,3.78,2.18a1.46,1.46,0,0,1-.55-1.29v-34A4.11,4.11,0,0,1,113.33,261.69Z" style="opacity: 0.15; transform-origin: 111.127px 279.24px;" class="animable"></path></g><path d="M264.09,175.1c.18,0,.19.46.19.51v34a3.56,3.56,0,0,1-1.56,2.7L114.29,298a1,1,0,0,1-.44.15c-.18,0-.18-.46-.18-.51v-34a3.56,3.56,0,0,1,1.56-2.7l148.43-85.74a1,1,0,0,1,.43-.15m0-.94a1.8,1.8,0,0,0-.9.28L114.76,260.18a4.47,4.47,0,0,0-2,3.51v34c0,.91.46,1.44,1.12,1.44a1.81,1.81,0,0,0,.91-.27L263.19,213.1a4.48,4.48,0,0,0,2-3.51v-34c0-.92-.45-1.45-1.12-1.45Z" style="fill: rgb(28, 230, 129); transform-origin: 188.975px 236.62px;" id="elhr17kuzyhe" class="animable"></path></g><path d="M141.33,257.24c2,1.17,3.26,3.66,3.26,7.22,0,7.1-5,15.75-11.14,19.3-3.08,1.78-5.86,1.94-7.88.78L122,282.49c-2-1.17-3.27-3.66-3.27-7.22,0-7.1,5-15.75,11.15-19.3,3.07-1.78,5.86-1.94,7.88-.78Z" style="fill: rgb(28, 230, 129); transform-origin: 131.66px 269.865px;" id="elqrq0c4a96w" class="animable"></path><g id="elxvglrbow05"><path d="M141.33,257.24c2,1.17,3.26,3.66,3.26,7.22,0,7.1-5,15.75-11.14,19.3-3.08,1.78-5.86,1.94-7.88.78L122,282.49c-2-1.17-3.27-3.66-3.27-7.22,0-7.1,5-15.75,11.15-19.3,3.07-1.78,5.86-1.94,7.88-.78Z" style="opacity: 0.2; transform-origin: 131.66px 269.865px;" class="animable"></path></g><path d="M133.45,283.76c-3.08,1.78-5.86,1.94-7.88.78s-3.26-3.66-3.26-7.21c0-7.11,5-15.75,11.14-19.31,3.08-1.77,5.86-1.94,7.88-.78s3.26,3.66,3.26,7.22C144.59,271.56,139.6,280.21,133.45,283.76Z" style="fill: rgb(28, 230, 129); transform-origin: 133.45px 270.892px;" id="el83ehfzp7eo6" class="animable"></path><path d="M139.37,265.87l-4.72,2.73v-6.29c0-.89-.54-1.29-1.2-.91a2.88,2.88,0,0,0-1.2,2.29V270l-4.72,2.73a2.88,2.88,0,0,0-1.2,2.29c0,.89.54,1.29,1.2.91l4.72-2.73v6.3c0,.88.54,1.29,1.2.9a2.86,2.86,0,0,0,1.2-2.29V271.8l4.72-2.73a2.88,2.88,0,0,0,1.2-2.29C140.57,265.9,140,265.49,139.37,265.87Z" style="fill: rgb(250, 250, 250); transform-origin: 133.45px 270.902px;" id="el47xc1jgdrfm" class="animable"></path><path d="M152.26,254.26,256.78,193.9a6,6,0,0,0,2.5-4.77c0-1.83-1.12-2.68-2.5-1.88L152.26,247.61a6,6,0,0,0-2.49,4.77C149.77,254.21,150.89,255.06,152.26,254.26Zm104.52-53L152.26,261.61a6,6,0,0,0-2.49,4.77c0,1.83,1.12,2.68,2.49,1.88l104.52-60.37a6,6,0,0,0,2.5-4.76h0C259.28,201.29,258.16,200.45,256.78,201.24Z" style="fill: rgb(224, 224, 224); transform-origin: 204.525px 227.755px;" id="elhw3gd20dhqg" class="animable"></path><g id="freepik--image--inject-601" class="animable" style="transform-origin: 185.235px 288.821px;"><g id="elqi1dx1tt31q"><g style="opacity: 0.2; transform-origin: 181.485px 286.7px;" class="animable"><path d="M106.39,310.83l150.18-86.74c.63-.37,1.15-.07,1.15.66v35.83a2.53,2.53,0,0,1-1.15,2L106.39,349.31c-.63.37-1.14.07-1.14-.66V312.81A2.52,2.52,0,0,1,106.39,310.83Z" id="el3v7y9t5d1a5" class="animable" style="transform-origin: 181.485px 286.7px;"></path></g></g><path d="M264.54,228.83a1.49,1.49,0,0,0-1.35.19L114.76,314.75a4.48,4.48,0,0,0-2,3.51v34a1.44,1.44,0,0,0,.55,1.29c-.35-.22-3.41-1.95-3.78-2.18a1.42,1.42,0,0,1-.58-1.3v-34a4.49,4.49,0,0,1,2-3.51l148.42-85.74a1.41,1.41,0,0,1,1.45-.13C261.16,226.88,263.82,228.39,264.54,228.83Z" style="fill: rgb(28, 230, 129); transform-origin: 186.741px 290.049px;" id="elxlauq6toocs" class="animable"></path><g id="ellh6gnwynul"><g style="opacity: 0.2; transform-origin: 187.055px 271.409px;" class="animable"><path d="M264.54,228.83c-.72-.44-3.38-2-3.71-2.14a1.41,1.41,0,0,0-1.45.13L111,312.56a4.16,4.16,0,0,0-1.43,1.51l3.8,2.2a4.2,4.2,0,0,1,1.43-1.52L263.19,229A1.49,1.49,0,0,1,264.54,228.83Z" style="fill: rgb(255, 255, 255); transform-origin: 187.055px 271.409px;" id="elgvp1wbby329" class="animable"></path></g></g><path d="M114.76,314.75,263.19,229c1.12-.65,2-.12,2,1.17v34a4.48,4.48,0,0,1-2,3.51L114.76,353.41c-1.12.65-2,.13-2-1.17v-34A4.49,4.49,0,0,1,114.76,314.75Z" style="fill: rgb(250, 250, 250); transform-origin: 188.975px 291.206px;" id="el6d5rqbdzeca" class="animable"></path><path d="M113.33,316.27l-3.8-2.2a4.16,4.16,0,0,0-.6,2v34a1.42,1.42,0,0,0,.58,1.3c.37.23,3.43,2,3.78,2.18a1.44,1.44,0,0,1-.55-1.29v-34A4.08,4.08,0,0,1,113.33,316.27Z" style="fill: rgb(28, 230, 129); transform-origin: 111.126px 333.81px;" id="elrwonw3pxk6f" class="animable"></path><g id="elfubmdmp2tv"><path d="M113.33,316.27l-3.8-2.2a4.16,4.16,0,0,0-.6,2v34a1.42,1.42,0,0,0,.58,1.3c.37.23,3.43,2,3.78,2.18a1.44,1.44,0,0,1-.55-1.29v-34A4.08,4.08,0,0,1,113.33,316.27Z" style="opacity: 0.15; transform-origin: 111.126px 333.81px;" class="animable"></path></g><path d="M264.09,229.68c.18,0,.19.46.19.51v34a3.56,3.56,0,0,1-1.56,2.7L114.29,352.6a.93.93,0,0,1-.44.16c-.18,0-.18-.46-.18-.52v-34a3.54,3.54,0,0,1,1.56-2.69l148.43-85.74a.85.85,0,0,1,.43-.15m0-.94a1.8,1.8,0,0,0-.9.28L114.76,314.75a4.49,4.49,0,0,0-2,3.51v34c0,.92.46,1.45,1.12,1.45a1.83,1.83,0,0,0,.91-.28l148.43-85.73a4.48,4.48,0,0,0,2-3.51v-34c0-.92-.45-1.45-1.12-1.45Z" style="fill: rgb(28, 230, 129); transform-origin: 188.99px 291.215px;" id="el0uk6t5g01f4" class="animable"></path></g><path d="M141.33,311.82c2,1.16,3.26,3.66,3.26,7.21,0,7.11-5,15.75-11.14,19.31-3.08,1.77-5.86,1.94-7.88.78L122,337.07c-2-1.17-3.27-3.67-3.27-7.22,0-7.11,5-15.75,11.15-19.3,3.07-1.78,5.86-1.95,7.88-.78Z" style="fill: rgb(28, 230, 129); transform-origin: 131.66px 324.441px;" id="el9pv2n8bwo9q" class="animable"></path><g id="elvrijmw3a7bm"><path d="M141.33,311.82c2,1.16,3.26,3.66,3.26,7.21,0,7.11-5,15.75-11.14,19.31-3.08,1.77-5.86,1.94-7.88.78L122,337.07c-2-1.17-3.27-3.67-3.27-7.22,0-7.11,5-15.75,11.15-19.3,3.07-1.78,5.86-1.95,7.88-.78Z" style="opacity: 0.2; transform-origin: 131.66px 324.441px;" class="animable"></path></g><path d="M133.45,338.34c-3.08,1.77-5.86,1.94-7.88.78s-3.26-3.66-3.26-7.22c0-7.11,5-15.75,11.14-19.3,3.08-1.78,5.86-2,7.88-.78s3.26,3.66,3.26,7.21C144.59,326.14,139.6,334.78,133.45,338.34Z" style="fill: rgb(28, 230, 129); transform-origin: 133.45px 325.456px;" id="el5wdd50htp6e" class="animable"></path><path d="M139.37,320.45l-4.72,2.72v-6.29c0-.88-.54-1.29-1.2-.91a2.9,2.9,0,0,0-1.2,2.3v6.29l-4.72,2.73a2.86,2.86,0,0,0-1.2,2.29c0,.88.54,1.29,1.2.91l4.72-2.73v6.29c0,.89.54,1.29,1.2.91a2.88,2.88,0,0,0,1.2-2.29v-6.3l4.72-2.72a2.88,2.88,0,0,0,1.2-2.29C140.57,320.47,140,320.07,139.37,320.45Z" style="fill: rgb(250, 250, 250); transform-origin: 133.45px 325.466px;" id="el2sc0fk7krkd" class="animable"></path><path d="M152.26,308.84l104.52-60.37a6,6,0,0,0,2.5-4.76c0-1.84-1.12-2.68-2.5-1.89L152.26,302.19a6,6,0,0,0-2.49,4.76C149.77,308.79,150.89,309.63,152.26,308.84Zm104.52-53L152.26,316.19a6,6,0,0,0-2.49,4.76c0,1.84,1.12,2.68,2.49,1.89l104.52-60.37a6,6,0,0,0,2.5-4.76h0C259.28,255.87,258.16,255,256.78,255.82Z" style="fill: rgb(224, 224, 224); transform-origin: 204.525px 282.33px;" id="elpam86l4rk7f" class="animable"></path><g id="freepik--image--inject-601" class="animable" style="transform-origin: 185.235px 343.398px;"><g id="elh4ahf4raepl"><g style="opacity: 0.2; transform-origin: 181.485px 341.277px;" class="animable"><path d="M106.39,365.4l150.18-86.74c.63-.36,1.15-.07,1.15.66v35.84a2.56,2.56,0,0,1-1.15,2L106.39,403.89c-.63.37-1.14.07-1.14-.66V367.39A2.55,2.55,0,0,1,106.39,365.4Z" id="el1y05a6kq0u7" class="animable" style="transform-origin: 181.485px 341.277px;"></path></g></g><path d="M264.54,283.41a1.49,1.49,0,0,0-1.35.18L114.76,369.33a4.48,4.48,0,0,0-2,3.51v34a1.44,1.44,0,0,0,.55,1.29c-.35-.22-3.41-2-3.78-2.18a1.43,1.43,0,0,1-.58-1.3v-34a4.49,4.49,0,0,1,2-3.51L259.38,281.4a1.44,1.44,0,0,1,1.45-.14C261.16,281.46,263.82,283,264.54,283.41Z" style="fill: rgb(28, 230, 129); transform-origin: 186.741px 344.628px;" id="elo9lrcb5429" class="animable"></path><g id="eltwsvhfnnmd"><g style="opacity: 0.2; transform-origin: 187.055px 325.988px;" class="animable"><path d="M264.54,283.41c-.72-.44-3.38-2-3.71-2.15a1.44,1.44,0,0,0-1.45.14L111,367.14a4.09,4.09,0,0,0-1.43,1.51l3.8,2.2a4.12,4.12,0,0,1,1.43-1.52l148.43-85.74A1.49,1.49,0,0,1,264.54,283.41Z" style="fill: rgb(255, 255, 255); transform-origin: 187.055px 325.988px;" id="el0i59tl4k4p9g" class="animable"></path></g></g><path d="M114.76,369.33l148.43-85.74c1.12-.64,2-.12,2,1.17v34a4.45,4.45,0,0,1-2,3.51L114.76,408c-1.12.65-2,.12-2-1.17v-34A4.49,4.49,0,0,1,114.76,369.33Z" style="fill: rgb(250, 250, 250); transform-origin: 188.975px 345.797px;" id="el41cqfd059b5" class="animable"></path><path d="M113.33,370.85l-3.8-2.2a4.13,4.13,0,0,0-.6,2v34a1.43,1.43,0,0,0,.58,1.3c.37.22,3.43,2,3.78,2.18a1.44,1.44,0,0,1-.55-1.29v-34A4,4,0,0,1,113.33,370.85Z" style="fill: rgb(28, 230, 129); transform-origin: 111.126px 388.39px;" id="elr2zwyfnfara" class="animable"></path><g id="el8a6i8mgj1ao"><path d="M113.33,370.85l-3.8-2.2a4.13,4.13,0,0,0-.6,2v34a1.43,1.43,0,0,0,.58,1.3c.37.22,3.43,2,3.78,2.18a1.44,1.44,0,0,1-.55-1.29v-34A4,4,0,0,1,113.33,370.85Z" style="opacity: 0.15; transform-origin: 111.126px 388.39px;" class="animable"></path></g><path d="M264.09,284.25c.18,0,.19.46.19.51v34a3.56,3.56,0,0,1-1.56,2.7L114.29,407.18a.87.87,0,0,1-.44.15c-.18,0-.18-.46-.18-.51v-34a3.56,3.56,0,0,1,1.56-2.7L263.66,284.4a1,1,0,0,1,.43-.15m0-.93a1.88,1.88,0,0,0-.9.27L114.76,369.33a4.49,4.49,0,0,0-2,3.51v34c0,.92.46,1.45,1.12,1.45a1.83,1.83,0,0,0,.91-.28l148.43-85.74a4.45,4.45,0,0,0,2-3.51v-34c0-.91-.45-1.44-1.12-1.44Z" style="fill: rgb(28, 230, 129); transform-origin: 188.99px 345.805px;" id="elg1yjiy5r0zl" class="animable"></path></g><path d="M141.33,366.4c2,1.16,3.26,3.66,3.26,7.21,0,7.11-5,15.75-11.14,19.3-3.08,1.78-5.86,1.95-7.88.78L122,391.64c-2-1.16-3.27-3.66-3.27-7.21,0-7.11,5-15.75,11.15-19.31,3.07-1.77,5.86-1.94,7.88-.78Z" style="fill: rgb(28, 230, 129); transform-origin: 131.66px 379.019px;" id="el2agbe5u40hs" class="animable"></path><g id="el2pthb0uzjbr"><path d="M141.33,366.4c2,1.16,3.26,3.66,3.26,7.21,0,7.11-5,15.75-11.14,19.3-3.08,1.78-5.86,1.95-7.88.78L122,391.64c-2-1.16-3.27-3.66-3.27-7.21,0-7.11,5-15.75,11.15-19.31,3.07-1.77,5.86-1.94,7.88-.78Z" style="opacity: 0.2; transform-origin: 131.66px 379.019px;" class="animable"></path></g><path d="M133.45,392.91c-3.08,1.78-5.86,1.95-7.88.78s-3.26-3.66-3.26-7.21c0-7.11,5-15.75,11.14-19.3,3.08-1.78,5.86-1.95,7.88-.79s3.26,3.67,3.26,7.22C144.59,380.72,139.6,389.36,133.45,392.91Z" style="fill: rgb(28, 230, 129); transform-origin: 133.45px 380.044px;" id="elatlrezod9j6" class="animable"></path><path d="M139.37,375l-4.72,2.72v-6.29c0-.89-.54-1.29-1.2-.91a2.88,2.88,0,0,0-1.2,2.29v6.3l-4.72,2.72a2.88,2.88,0,0,0-1.2,2.29c0,.89.54,1.29,1.2.91l4.72-2.72v6.29c0,.88.54,1.29,1.2.91a2.9,2.9,0,0,0,1.2-2.3V381l4.72-2.72a2.9,2.9,0,0,0,1.2-2.3C140.57,375.05,140,374.64,139.37,375Z" style="fill: rgb(250, 250, 250); transform-origin: 133.45px 380.014px;" id="elir5mv71snck" class="animable"></path><path d="M152.26,363.42l104.52-60.37a6,6,0,0,0,2.5-4.77c0-1.83-1.12-2.68-2.5-1.88L152.26,356.77a6,6,0,0,0-2.49,4.76C149.77,363.37,150.89,364.21,152.26,363.42Zm104.52-53L152.26,370.76a6,6,0,0,0-2.49,4.77c0,1.83,1.12,2.68,2.49,1.88l104.52-60.36a6,6,0,0,0,2.5-4.77h0C259.28,310.45,258.16,309.6,256.78,310.4Z" style="fill: rgb(224, 224, 224); transform-origin: 204.525px 336.905px;" id="els2yqd7krd58" class="animable"></path></g></g><g id="freepik--Arrows--inject-601" class="animable" style="transform-origin: 313.21px 311.075px;"><g id="freepik--arrows--inject-601" class="animable" style="transform-origin: 313.21px 311.075px;"><g id="freepik--Arrow--inject-601" class="animable" style="transform-origin: 300.45px 311.075px;"><polygon points="291.42 383.04 298.24 386.97 309.47 380.49 309.47 253.31 316.96 248.99 304.12 239.12 297.29 235.18 283.94 260.18 290.76 264.12 291.42 263.73 291.42 383.04" style="fill: rgb(28, 230, 129); transform-origin: 300.45px 311.075px;" id="el5wze06y9l9o" class="animable"></polygon><g id="eljfbn3ntiqp"><polygon points="291.42 383.04 298.24 386.97 309.47 380.49 309.47 253.31 316.96 248.99 304.12 239.12 297.29 235.18 283.94 260.18 290.76 264.12 291.42 263.73 291.42 383.04" style="fill: rgb(255, 255, 255); opacity: 0.8; transform-origin: 300.45px 311.075px;" class="animable"></polygon></g><polygon id="freepik--down-arrow--inject-601" points="298.24 386.97 309.47 380.49 309.47 253.31 316.96 248.99 304.12 239.12 290.76 264.12 298.24 259.8 298.24 386.97" style="fill: rgb(28, 230, 129); transform-origin: 303.86px 313.045px;" class="animable"></polygon><g id="freepik--down-arrow--inject-601"><polygon points="298.24 386.97 309.47 380.49 309.47 253.31 316.96 248.99 304.12 239.12 290.76 264.12 298.24 259.8 298.24 386.97" style="fill: rgb(255, 255, 255); opacity: 0.7; transform-origin: 303.86px 313.045px;" class="animable"></polygon></g><polygon points="291.42 383.04 298.24 386.97 298.24 259.8 291.42 263.73 291.42 383.04" style="fill: rgb(28, 230, 129); transform-origin: 294.83px 323.385px;" id="elbm6hut4y31v" class="animable"></polygon><g id="elqr0gxyy5ww"><polygon points="291.42 383.04 298.24 386.97 298.24 259.8 291.42 263.73 291.42 383.04" style="fill: rgb(255, 255, 255); opacity: 0.5; transform-origin: 294.83px 323.385px;" class="animable"></polygon></g></g><g id="freepik--arrow--inject-601" class="animable" style="transform-origin: 330.105px 323.225px;"><polygon points="323.34 366.55 328.45 369.5 336.87 364.64 336.87 290.54 342.48 287.3 332.85 279.9 327.74 276.95 317.73 295.68 322.84 298.63 323.34 298.35 323.34 366.55" style="fill: rgb(245, 245, 245); transform-origin: 330.105px 323.225px;" id="elftvdip76oz9" class="animable"></polygon><polygon id="freepik--down-arrow--inject-601" points="328.45 369.5 336.87 364.64 336.87 290.54 342.48 287.3 332.85 279.9 322.84 298.63 328.45 295.39 328.45 369.5" style="fill: rgb(235, 235, 235); transform-origin: 332.66px 324.7px;" class="animable"></polygon><polygon points="323.34 366.55 328.45 369.5 328.45 295.39 323.34 298.35 323.34 366.55" style="fill: rgb(224, 224, 224); transform-origin: 325.895px 332.445px;" id="eliyhovgbbyj" class="animable"></polygon></g></g></g><g id="freepik--Character--inject-601" class="animable" style="transform-origin: 370.504px 261.071px;"><g id="freepik--character--inject-601" class="animable" style="transform-origin: 370.504px 261.071px;"><g id="freepik--Bottom--inject-601" class="animable" style="transform-origin: 406.477px 320.855px;"><path d="M435.75,374.67s4.89.91,7.62,4.54,8.73,14.46,9.93,15.68a8.85,8.85,0,0,1-2.85,2.86l-3.25-3.84c-.81-.7-2.13-2.43-2.15-.21s.22,4.29.46,8.59c.14,2.61,1,7.78-3.59,12.7-4.3,4.6-9.42,7.67-12.55,8.05-1.87.22-6.06-.26-5.78-4,.16-2,2.67-9.39,3.06-13S435.75,374.67,435.75,374.67Z" style="fill: rgb(38, 50, 56); transform-origin: 438.438px 398.877px;" id="el7wej2yeqmuk" class="animable"></path><path d="M436.49,375.71c-.61-.81-2.51-4.2-3.43-5.77s-4.71-9.86-9.38-22.58c-6-16.38-16.35-28.59-19.5-34.76a128.45,128.45,0,0,1-8.77-21L382,300.14l-17.35-.7c-.23,2.57.75,6,2.6,10.07h0l.05.1c.17.37.35.75.53,1.12,3.7,7.69,10.1,17,17.26,26.47l.18.23.25.33c6.9,9.14,14.5,18.44,21.14,26.5v-.19c7.13,8.63,12.89,15.64,14.93,19.13,5.95,10.23,5,20.1,4.95,25.49-.05,3.36,2.57,4.06,6.15,1.2a21.59,21.59,0,0,0,8-16C441,380.92,440,380.4,436.49,375.71Z" style="fill: rgb(255, 189, 167); transform-origin: 402.68px 351.638px;" id="eljuaqcm30e7" class="animable"></path><path d="M364.73,204.62c-1.36,10.45-2.7,20.16-3.87,47.84-1,23.27-2,35.74-.25,47.22.62,4.09,2.73,8.87,6.72,14.87,12.48,18.82,36.94,48.36,36.94,48.36s5.46-.18,12-5.72a19.28,19.28,0,0,0,6.5-13.13s-.7-4.33-11-21.69-11.86-36.3-11.86-36.3l5.61-74.43C389.85,213.32,372.11,210.57,364.73,204.62Z" style="fill: rgb(69, 90, 100); transform-origin: 391.212px 283.765px;" id="el8594ytv7gy" class="animable"></path><path d="M416.27,357.19a19.28,19.28,0,0,0,6.5-13.13s-.7-4.33-11-21.69-11.86-36.3-11.86-36.3l4.3-57c-12.29-1.76-29.4-1.33-29.4-1.33-.22,8.15,1.66,18.2,13.1,24.09,0,0-1.58,40.06-1.69,51.77-.08,8.94,2.73,31.64,4.07,41.91,7.78,9.87,14,17.38,14,17.38S409.73,362.73,416.27,357.19Z" style="fill: rgb(55, 71, 79); transform-origin: 398.782px 295.292px;" id="elzugdyay5qko" class="animable"></path><path d="M413.85,398.3a15,15,0,0,1,3.92,8.55c.32,4.88-.55,18.19-.21,20a8.48,8.48,0,0,1-3.95.93l-.63-5.38c-.3-1.1-.17-2-1.39,0s-2.24,4.24-4.14,7.15c-1.51,2.3-3.64,7.75-10.17,9.52-6.11,1.65-13.15.86-16-.63-1.69-.89-4.72-2.3-2.46-5.49,1.21-1.7,8-8.52,10.28-11.54S413.85,398.3,413.85,398.3Z" style="fill: rgb(38, 50, 56); transform-origin: 397.928px 419.145px;" id="el4c61ufs4ibx" class="animable"></path><path d="M397.36,397.78c.58-12.73-10.14-71.22-6.32-98.51l34.2.34a147.63,147.63,0,0,0-4.06,24.09c-.72,7.42,1.3,24.5-2.58,42.83-3,14.24-4.33,24-4.42,25.92s-.34,6.13-.27,7.22c.41,6.3-.63,9.86-7.75,19.68-1.38,1.9-4.72,8.06-14,9.06-4.56.5-6.38-1.65-4.5-4.67C390.64,418.91,396.78,410.51,397.36,397.78Z" style="fill: rgb(255, 189, 167); transform-origin: 406.083px 363.876px;" id="elvlgdnfa2pdg" class="animable"></path><path d="M421.18,323.7c-.13,2.89,0,5.77.07,8.66s.15,5.78.16,8.68a138,138,0,0,1-1,17.35c-.36,2.88-.9,5.73-1.48,8.56l-1.76,8.46q-.87,4.23-1.62,8.49c-.52,2.84-1,5.68-1.37,8.55a168,168,0,0,1,2.33-17.18c1-5.71,2.39-11.3,3-17,.4-2.84.64-5.72.85-8.59s.26-5.76.35-8.64.07-5.77.08-8.66S420.85,326.57,421.18,323.7Z" style="fill: rgb(240, 153, 122); transform-origin: 417.796px 358.075px;" id="elpb70zap7y1" class="animable"></path><path d="M364.73,204.62s3.95,13.48,8.36,25.68c3.83,10.6,11,16.5,18.48,18.88,0,0-1.85,47.91-2.43,54.58s1.29,30.8,2.89,46.67,2.11,21.3,2.11,21.3,3.33,3.53,12.54,3.57,12.08-3.93,12.08-3.93,5.59-18.46,5.64-32.89c0-8.26-1.78-12.34-.36-20.55s12.19-44.86,13.87-62.18-1.37-32.47-13.52-50C411.68,214.61,376.51,212.92,364.73,204.62Z" style="fill: rgb(69, 90, 100); transform-origin: 401.533px 289.96px;" id="el3zq4y7lbk91" class="animable"></path><path d="M419.17,208.53c6.58,9.09,16.13,27.91,9.88,55.18q-2.67,11.64-5.27,22.48c-4,16.95-7.2,30.34-7.58,35.44a41,41,0,0,0,.52,8.58,74.39,74.39,0,0,1,.26,20.2c-1,8.71-2.6,17.88-3.73,24.08.38-.11.75-.22,1.09-.35,1.13-6.2,2.63-15.12,3.65-23.61a74.86,74.86,0,0,0-.27-20.45,41.23,41.23,0,0,1-.51-8.37c.38-5,3.55-18.38,7.56-35.28,1.72-7.25,3.49-14.73,5.27-22.49,6.29-27.47-3.23-46.51-9.91-55.82Z" style="fill: rgb(55, 71, 79); transform-origin: 422.674px 291.305px;" id="elxv5f53cfj1h" class="animable"></path><path d="M364.48,201.72a88.25,88.25,0,0,0,31.64,6.76c19.3.21,28.46-5.82,28.46-5.82a13.17,13.17,0,0,0,1.86,6.17s-11.08,6.65-30.26,6.08-31.92-7.13-31.92-7.13A31.92,31.92,0,0,0,364.48,201.72Z" style="fill: rgb(55, 71, 79); transform-origin: 395.35px 208.332px;" id="el4s7vp5l6m8t" class="animable"></path></g><g id="freepik--Top--inject-601" class="animable" style="transform-origin: 367.119px 165.611px;"><path d="M383.48,142.24c-8,1.44-11.82,3.93-17.83,13.57s-24.2,35.25-24.2,35.25,4.1,10.37,19,13.06c7-10,20.73-29.68,20.73-29.68Z" style="fill: rgb(28, 230, 129); transform-origin: 362.465px 173.18px;" id="eldzazmu9vxzc" class="animable"></path><g id="el9gdw5j1ir2v"><path d="M383.48,142.24c-8,1.44-11.82,3.93-17.83,13.57s-24.2,35.25-24.2,35.25,4.1,10.37,19,13.06c7-10,20.73-29.68,20.73-29.68Z" style="opacity: 0.3; transform-origin: 362.465px 173.18px;" class="animable"></path></g><path d="M427.1,199.3c0,2.07,5.26,12.47,8.14,23.69-17.26,22.25-68.36,10.11-72.1-2.41.8-14.88,1.49-52.45,4.75-59.25a50.2,50.2,0,0,1,15.65-18.64,91.88,91.88,0,0,1,10.9-1.45,63.65,63.65,0,0,1,16.34.42c4.84.74,12.79,2.84,12.79,2.84,3,2.56,11.43,13.35,9.48,26.35C432.16,176.82,427.08,184.61,427.1,199.3Z" style="fill: rgb(250, 250, 250); transform-origin: 399.19px 188.131px;" id="el21sspmqre95" class="animable"></path><path d="M412.65,140.9l-.07,1.83s-7.22,18.36-7.46,33.25,4.57,73.09,4.57,73.09,12.2-1.57,19-4.74l.47-14.08L432.32,243s4.11-1.29,6.22-4.34c0-5.51-1.41-17-6.22-29.19s-5-14.42-1.64-26.5,6.1-17.7,2.11-26.38S424.13,144,424.13,144Z" style="fill: rgb(28, 230, 129); transform-origin: 421.826px 194.985px;" id="eli2xughnk63j" class="animable"></path><path d="M392.29,140.9l-.06,2.15a152,152,0,0,0-12.56,15c-5.95,8.19-5.83,11.47-8.25,24.21s-3.32,55.24-3.32,55.24a62.47,62.47,0,0,1-7.24-2.44s1.51-25,2.06-33.6,1.34-28.24,2.61-33.88.91-6.92,5.77-13.54a60.63,60.63,0,0,1,12.18-11.77Z" style="fill: rgb(28, 230, 129); transform-origin: 376.575px 189.2px;" id="elnbw5j2tj4y" class="animable"></path><path d="M383.15,212.7c-.48-1.4-4.65-4-5.56-6.85-.53-1.67.57-4.09,2.35-2.43,3.73,3.49,6.46,4,8.91,5.7" style="fill: rgb(255, 189, 167); transform-origin: 383.153px 207.781px;" id="elty5b5b55jhd" class="animable"></path><g id="freepik--Like--inject-601" class="animable" style="transform-origin: 339.793px 185.517px;"><path d="M289,186.52c-.92,3.14,1.59,9.68,5.68,10.89a18.51,18.51,0,0,0-3.2,6.23c-1.34,4.55,1.72,10.4,8,12.25L347.56,230l6.89,2.12,16-54.52-6.93-2s-7.47-23.36-7.8-26.87,5-17,5.73-19.48-10.92-7-17.37,1-9,15.45-9.28,24.58l-29.06-8.55c-6.14-1.8-10.31,3.12-11.33,6.57a10.23,10.23,0,0,0,2.22,9.87,8.46,8.46,0,0,0-8.22,6.46,9.52,9.52,0,0,0,4.48,10.88S290.39,181.81,289,186.52Z" style="fill: rgb(250, 250, 250); transform-origin: 329.25px 178.918px;" id="elosq5vi26e4" class="animable"></path><path d="M361.48,129.32c.74-2.52-10.92-7-17.37,1s-9,15.45-9.28,24.58l.36.5,5.17,1.46C344.74,128.77,355.94,127.84,361.48,129.32Z" style="fill: rgb(224, 224, 224); transform-origin: 348.172px 141.317px;" id="elu7z0nr96k6g" class="animable"></path><g id="el5zgespixyd9"><rect x="361.18" y="177.88" width="21.84" height="65.94" style="fill: rgb(28, 230, 129); transform-origin: 372.1px 210.85px; transform: rotate(-163.61deg);" class="animable"></rect></g><g id="elz42xjqlfam"><rect x="361.18" y="177.88" width="21.84" height="65.94" style="opacity: 0.2; transform-origin: 372.1px 210.85px; transform: rotate(-163.61deg);" class="animable"></rect></g><path d="M292.92,180.16s-2.53,1.65-3.91,6.36a4.09,4.09,0,0,0-.15.76c-.4,3.32,2,9,5.82,10.13a18.63,18.63,0,0,0-3.2,6.23,8.06,8.06,0,0,0-.27,1.4c-.43,4.28,2.62,9.19,8.27,10.85l9.66,2.84c-5.66-1.66-8.7-6.57-8.28-10.85a8.36,8.36,0,0,1,.27-1.41,18.52,18.52,0,0,1,3.2-6.22c-3.78-1.12-6.22-6.81-5.82-10.14a4.15,4.15,0,0,1,.15-.75c1.38-4.71,3.92-6.36,3.92-6.36a9.53,9.53,0,0,1-4.49-10.88l.06-.15a8.43,8.43,0,0,1,8.16-6.31,10.26,10.26,0,0,1-2.22-9.87c.06-.2.13-.4.21-.62,1.31-3.38,5.35-7.64,11.12-5.95l-9.65-2.83c-5.78-1.7-9.82,2.56-11.12,5.94-.08.22-.15.42-.21.62a10.23,10.23,0,0,0,2.22,9.87,8.45,8.45,0,0,0-8.17,6.31l-.05.15A9.52,9.52,0,0,0,292.92,180.16Z" style="fill: rgb(224, 224, 224); transform-origin: 301.75px 182.367px;" id="elcdsrquwvgc" class="animable"></path><path d="M347.45,230.4l-48.07-14.15A12.24,12.24,0,0,1,292.3,211a9.33,9.33,0,0,1-1.18-7.45,19.23,19.23,0,0,1,2.94-5.94,9.12,9.12,0,0,1-4.44-4.74,10,10,0,0,1-1-6.44,13,13,0,0,1,3.61-6.2,10,10,0,0,1-4.17-11,8.86,8.86,0,0,1,7.79-6.7,10.56,10.56,0,0,1-1.79-9.63,11,11,0,0,1,3.88-5.46,8.71,8.71,0,0,1,7.91-1.37l28.6,8.41c.39-9.4,3.2-16.7,9.34-24.32,4.58-5.69,12.12-5.38,16-3.35,1.55.81,2.29,1.78,2,2.66-.18.62-.63,1.87-1.19,3.45-1.67,4.65-4.77,13.31-4.52,15.89.31,3.26,7,24.35,7.72,26.6l7.1,2L354.7,232.62ZM363.25,176l-.06-.19c-.31-1-7.49-23.44-7.82-27-.26-2.75,2.76-11.18,4.56-16.21.57-1.58,1-2.82,1.19-3.41s-.53-1.19-1.66-1.78c-3.66-1.91-10.74-2.19-15.06,3.16-6.14,7.61-8.89,14.9-9.19,24.35l0,.49-29.53-8.68a8,8,0,0,0-7.25,1.25,10.31,10.31,0,0,0-3.61,5.06,9.86,9.86,0,0,0,2.14,9.51l.62.67-.92,0a8,8,0,0,0-7.84,6.19,9.18,9.18,0,0,0,4.3,10.44l.56.3-.53.35s-2.44,1.65-3.76,6.15a9.24,9.24,0,0,0,.94,5.9c1.1,2.36,2.74,4,4.48,4.51l.55.17-.37.44a18.66,18.66,0,0,0-3.13,6.09,8.6,8.6,0,0,0,1.11,6.84,11.48,11.48,0,0,0,6.64,4.95l48.08,14.14,6.52,2L370,177.9Z" style="fill: rgb(69, 90, 100); transform-origin: 329.304px 179.047px;" id="el8s3nz9x6388" class="animable"></path><g id="el1go92ug6q73"><rect x="356.52" y="210.18" width="21.84" height="32.97" style="opacity: 0.2; transform-origin: 367.44px 226.665px; transform: rotate(-163.61deg);" class="animable"></rect></g><path d="M368.23,235.2a3.16,3.16,0,1,0-3.93,2.14A3.17,3.17,0,0,0,368.23,235.2Z" style="fill: rgb(240, 240, 240); transform-origin: 365.198px 234.309px;" id="el1s4zeavhkf1" class="animable"></path></g><path d="M388.85,209.12c2.46,1.73,5,2.33,9.85,2.55,5.18.23,25.69-8.19,25.69-8.19l-3.78-27.29s-4.34-20.62,3.63-31.54c12.69,2.7,13.69,6.44,15.27,11.72,1.21,4,2.61,9.31,4.44,27,1.65,15.82,1.82,20,1.65,27.95-.16,6.9-5.66,9.11-15.21,11.33s-15.69,3-29.26,5c-6.52,1-10.22.52-15.88.39a20.59,20.59,0,0,1-6.33-.92,12.17,12.17,0,0,1-5-2.92,3.6,3.6,0,0,0-.79-.72,8.41,8.41,0,0,0-1-.43,7.13,7.13,0,0,1-1.83-.86,11.49,11.49,0,0,1-1.44-1.59,7.55,7.55,0,0,0-.64-.74,5.57,5.57,0,0,0-.84-.6,7.58,7.58,0,0,1-2.15-1.57,1.37,1.37,0,0,1-.23-1.33s-1.07-.43-1.43-.6a7.74,7.74,0,0,1-1.4-.86.71.71,0,0,1-.36-.52.6.6,0,0,1,.12-.36c1-1.76,3.1-1.75,4.89-1.59,4.65.41,7.49,1.64,12.19,1.54,2.56-.06,3.25-.12,3.95-.61a.52.52,0,0,0,.2-.66" style="fill: rgb(255, 189, 167); transform-origin: 403.731px 186.46px;" id="els73nd3b1b1f" class="animable"></path><path d="M424.39,203.48a53.27,53.27,0,0,1,10.28-3.86s-3.24-1.27-10.54,2Z" style="fill: rgb(240, 153, 122); transform-origin: 429.4px 201.429px;" id="el1q2iaa3bppx" class="animable"></path><path d="M365.16,216.55c1.06.48,2.17.86,3.27,1.24s2.22.71,3.32,1.07c.55.18,1.1.38,1.67.54s1.14.29,1.71.39a34,34,0,0,0,3.46.52l-1.69-.42c-.57-.13-1.13-.27-1.69-.42s-1.13-.29-1.68-.47-1.09-.37-1.65-.55c-1.11-.36-2.23-.68-3.35-1Z" style="fill: rgb(240, 153, 122); transform-origin: 371.875px 218.43px;" id="elozt8kmbxth" class="animable"></path><path d="M368.1,219.76a14.64,14.64,0,0,0,2.36,1.37c.82.37,1.66.69,2.5,1s1.71.57,2.57.81a19.89,19.89,0,0,0,2.63.57c-.85-.28-1.68-.6-2.53-.89l-2.52-.9-2.52-.91C369.76,220.5,368.91,220.14,368.1,219.76Z" style="fill: rgb(240, 153, 122); transform-origin: 373.13px 221.635px;" id="elyrvn5yegk9m" class="animable"></path><path d="M424.13,144c8.71,2.24,12.59,3.76,14.41,8.06s2.71,7,4.68,18.61a309.41,309.41,0,0,1,3.31,38.47c-.09,6.35.62,9-6.45,11.63S417,225.69,417,225.69a28.52,28.52,0,0,0-.27-8.76,31.15,31.15,0,0,0-3.85-9.4l10.74-4.29s-3.76-24.34-4.29-28.63S417.31,153.12,424.13,144Z" style="fill: rgb(28, 230, 129); transform-origin: 429.705px 184.845px;" id="elbka7wrnmu8b" class="animable"></path><g id="el7epikidv9bi"><path d="M424.13,144c8.71,2.24,12.59,3.76,14.41,8.06s2.71,7,4.68,18.61a309.41,309.41,0,0,1,3.31,38.47c-.09,6.35.62,9-6.45,11.63S417,225.69,417,225.69a28.52,28.52,0,0,0-.27-8.76,31.15,31.15,0,0,0-3.85-9.4l10.74-4.29s-3.76-24.34-4.29-28.63S417.31,153.12,424.13,144Z" style="opacity: 0.3; transform-origin: 429.705px 184.845px;" class="animable"></path></g><g id="freepik--Head--inject-601" class="animable" style="transform-origin: 399.053px 123.596px;"><path d="M379.41,116l-1.59-.49c-7.13-3.83-6.77-13.12-5-18,3.87-10.81,15.56-14.86,22.79-15.26,13.72-.75,20.42,2.79,21.83,9.9,1.86-.16,4.42,1.34,6,3.44,3.37,4.59,7.39,20.59-10.4,37.47Z" style="fill: rgb(55, 71, 79); transform-origin: 399.053px 107.606px;" id="eliy0pavyjdso" class="animable"></path><path d="M416.27,127.75c2.48.36,4.4-.94,5.83-2.64,3.18-3.79,3.34-7.52,1.7-9.94-1.36-2-4.55-3.16-6.69-1.7-2.29,1.57-2.32,2.77-3.14,4.47s-4.27,1.69-5.35-5c-1-6.24-.73-12.78-3.9-15.49-4.75-4-10.68-2.65-12.4-.08a6.21,6.21,0,0,0-8.54-1.79c-3,1.77-5.26,6.56-5.87,18.49-.63,12.16,2.51,19.6,5.37,21.53,2.17,1.47,4.56,2.07,9.11,2.1l-.16,5.34s-6.16,11.64-5.74,22c0,0,2.51-1.73,13.81-11.61l12.28-10.73.64-16.77A3.9,3.9,0,0,0,416.27,127.75Z" style="fill: rgb(255, 189, 167); transform-origin: 401.327px 129.815px;" id="elkt163wnya6q" class="animable"></path><path d="M381.08,108.22l4.47-1.71a2.3,2.3,0,0,0-3-1.43A2.51,2.51,0,0,0,381.08,108.22Z" style="fill: rgb(38, 50, 56); transform-origin: 383.249px 106.575px;" id="elnx0sbv5fl1e" class="animable"></path><path d="M397.67,106.48l4.43,2.58a2.46,2.46,0,0,0-.84-3.47A2.69,2.69,0,0,0,397.67,106.48Z" style="fill: rgb(38, 50, 56); transform-origin: 400.082px 107.151px;" id="elscvq8lq1kxb" class="animable"></path><path d="M403.62,98.27c1.07,1.36,1.86,2.73,1.69,7.61-.06,2,.09,6.78,1.45,9.61,1.19,2.48,2.43,4,5.07,4.41a9.73,9.73,0,0,0,4.76-.48c.93-.43,3.56-2.28,3.24-5a5.69,5.69,0,0,1-1.93,1.36,5.76,5.76,0,0,1-1.74.42,5.33,5.33,0,0,1-4.49-2.49c-1.77-2.63-1.66-6.17-2.2-9.19-.69-3.82-1.35-8.17-4.81-10.07-4.08-2.24-11.46-1.24-12.34,2.93A8.1,8.1,0,0,1,403.62,98.27Z" style="fill: rgb(55, 71, 79); transform-origin: 406.088px 106.646px;" id="elfkqe907svle" class="animable"></path><path d="M397.48,124.36l-6.68,1.85a3.48,3.48,0,0,0,4.59,2.31A3.26,3.26,0,0,0,397.48,124.36Z" style="fill: rgb(177, 102, 104); transform-origin: 394.228px 126.554px;" id="elwtmpvujpv6s" class="animable"></path><path d="M393.48,128.64a3.64,3.64,0,0,1,3.78-3.09,3.43,3.43,0,0,1,.34.06,3.08,3.08,0,0,1-2.21,2.91A4,4,0,0,1,393.48,128.64Z" style="fill: rgb(240, 153, 122); transform-origin: 395.54px 127.125px;" id="eldwkloh3e09a" class="animable"></path><polygon points="392.31 109.78 390.91 121.68 384.45 119.17 392.31 109.78" style="fill: rgb(240, 153, 122); transform-origin: 388.38px 115.73px;" id="eli5ma0rujj9g" class="animable"></polygon><path d="M392.39,137.71a42.54,42.54,0,0,0,12.84-2.9c1.49-.66,3.48-3.4,5.09-6.44,0,0-1.09,6-4.3,8.06-4.89,3.18-13.7,3.93-13.7,3.93Z" style="fill: rgb(240, 153, 122); transform-origin: 401.32px 134.365px;" id="elwnnbhj0wtfn" class="animable"></path><path d="M382.2,111.78c-.35,1,.32,1.3,1.26,1.64s1.78.54,2.13-.43a1.8,1.8,0,1,0-3.39-1.21Z" style="fill: rgb(38, 50, 56); transform-origin: 383.905px 112.128px;" id="elof65gnjbw6r" class="animable"></path><path d="M385.41,111a4.51,4.51,0,0,0-1.34-.5,3.9,3.9,0,0,0-1.4-.09,4.28,4.28,0,0,0-1.43.4s-.06.12,0,.11c.39,0,.72-.09,1.28-.11a6.37,6.37,0,0,1,1.56.21,6.79,6.79,0,0,1,1.77.68c.18.09.53.29.57.32s.1-.1.07-.14A3,3,0,0,0,385.41,111Z" style="fill: rgb(38, 50, 56); transform-origin: 383.856px 111.204px;" id="elunavg7fofem" class="animable"></path><path d="M400.37,112.44c.22,1-.5,1.24-1.47,1.44s-1.84.31-2.06-.71a1.8,1.8,0,1,1,3.53-.73Z" style="fill: rgb(38, 50, 56); transform-origin: 398.606px 112.507px;" id="elow53o477bh9" class="animable"></path><path d="M397.29,111.22a4.83,4.83,0,0,1,1.4-.32,4.11,4.11,0,0,1,1.4.1,4.69,4.69,0,0,1,1.36.59s.05.13,0,.12c-.37-.09-.7-.2-1.25-.29a6.34,6.34,0,0,0-1.57,0,6.56,6.56,0,0,0-1.84.43l-.61.24c-.06,0-.09-.11-.06-.15A3.18,3.18,0,0,1,397.29,111.22Z" style="fill: rgb(38, 50, 56); transform-origin: 398.79px 111.485px;" id="elt1s4ktgwnli" class="animable"></path></g><path d="M320.64,224.71c-2.8,0-2.95-.32-3.37-1.71a7.17,7.17,0,0,1,1-6.47c1.22-1.58,2.37-3.23,3.41-3.75s2.27,1.46,1.21,3.91c-1.66,3.86-.74,4.49-.74,4.49a50.11,50.11,0,0,1,2.36-4.83c.82-1.28,3-3.09,4.27-4.33s3.24-.21,2.14,2.62l2.27-2.27c1.59-1.59,3-1.5,3.08.71a3.25,3.25,0,0,1-.57,2.07s1.39-1.91,2.05-1.49c1.91,1.21,1.53,2.74-.16,7.42-1.43,4-.88,6,.7,6.62l1,.3s-1.94.86-3.82,1.52c-1.37.48-2.72.75-3.91-.78,0,0-1.49,2.14-2.88,1.32a8.34,8.34,0,0,1-2.43-2.54,2.82,2.82,0,0,1-3-.4,4.61,4.61,0,0,1-1.73-2.43Z" style="fill: rgb(255, 189, 167); transform-origin: 328.097px 220.766px;" id="el0vz4mv1s6crh" class="animable"></path><path d="M330.93,214.64a14.2,14.2,0,0,0-1.94,2.14,9.39,9.39,0,0,0-.93,2.78,34.17,34.17,0,0,0-.77,5.64,33,33,0,0,0,1.59-5.46,14.88,14.88,0,0,1,.68-2.65C330,216.31,330.52,215.5,330.93,214.64Z" style="fill: rgb(240, 153, 122); transform-origin: 329.11px 219.92px;" id="elrvpzdodm97j" class="animable"></path><path d="M335.71,215.15a6.37,6.37,0,0,0-1.91,2.47,16.46,16.46,0,0,0-1,2.95,29,29,0,0,0-.84,6.09,58.17,58.17,0,0,0,1.65-5.89A16.1,16.1,0,0,1,335.71,215.15Z" style="fill: rgb(240, 153, 122); transform-origin: 333.835px 220.905px;" id="elnd46yoxuwhr" class="animable"></path></g></g></g><g id="freepik--speech-bubble--inject-601" class="animable" style="transform-origin: 328.074px 77.9929px;"><g id="freepik--speech-bubble--inject-601" class="animable" style="transform-origin: 328.074px 77.9929px;"><g id="freepik--speech-bubble--inject-601" class="animable" style="transform-origin: 328.074px 77.9929px;"><path d="M347.59,56.82a28.58,28.58,0,0,1,9.15,19l.06,3.29a28.7,28.7,0,0,1-57.16,2.33l-.22-3.28a28.7,28.7,0,0,1,48.17-21.33Z" style="fill: rgb(255, 255, 255); transform-origin: 328.109px 77.9215px;" id="el1tlfkfcwpob" class="animable"></path><path d="M305.18,56.86a31.15,31.15,0,0,0,42.06,45.67l9,3.52a1.8,1.8,0,0,0,2.28-2.48l-4.28-8.68a31.15,31.15,0,0,0-49.07-38Zm42.38-.08a28.62,28.62,0,0,1,9.18,19l.06,3.29a28.69,28.69,0,0,1-57.15,2.42l-.22-3.28a28.69,28.69,0,0,1,48.13-21.41Z" style="fill: rgb(69, 90, 100); transform-origin: 328.074px 77.9929px;" id="elkb5xerf65d" class="animable"></path></g><g id="freepik--Check--inject-601" class="animable" style="transform-origin: 328.052px 79.5497px;"><path d="M323.84,95.68a4.4,4.4,0,0,1-3.21-1.39l-10-10.66a4.4,4.4,0,1,1,6.43-6l6.48,6.92L338.9,65.1a4.4,4.4,0,1,1,6.91,5.46L327.3,94A4.44,4.44,0,0,1,324,95.68Z" style="fill: rgb(28, 230, 129); transform-origin: 328.052px 79.5497px;" id="elm93xlto7uue" class="animable"></path></g></g></g><g id="freepik--Icons--inject-601" class="animable animator-active" style="transform-origin: 254.838px 143.888px;"><path id="freepik--like--inject-601" d="M477.86,65.92a5.93,5.93,0,0,0-1.33-1.87,4.28,4.28,0,0,0,.55-4.44,3.87,3.87,0,0,0-2.89-2.27A4.37,4.37,0,0,0,474,54a4.14,4.14,0,0,0-5.44-2.08l-9.28,4.39a14.78,14.78,0,0,0-4.81-7.92,5.42,5.42,0,0,0-6.74-.33c-1.08.79-.89,1.51-.76,1.79s.34.65.64,1.2c.73,1.34,2.44,4.47,2.49,5.29s-.74,6.52-1.29,10.08a.73.73,0,0,0,.06.41l8.93,18.86a.72.72,0,0,0,.84.39l.11,0,16.68-7.9a4.53,4.53,0,0,0,2.55-5.86,7.4,7.4,0,0,0-1.09-1.68A4.78,4.78,0,0,0,477.86,65.92Zm-2.39,4a.74.74,0,0,0-.4.54.74.74,0,0,0,.24.64,6.13,6.13,0,0,1,1.34,1.85,3.16,3.16,0,0,1-1.87,4l-16,7.59-8.53-18c.24-1.58,1.35-8.9,1.27-10.16-.06-1.06-1.29-3.39-2.66-5.89l-.52-1a3.41,3.41,0,0,1,1.75-.85,3.85,3.85,0,0,1,3.42.89,13.55,13.55,0,0,1,4.57,8,.71.71,0,0,0,.38.5.68.68,0,0,0,.62,0l10.09-4.78a2.73,2.73,0,0,1,3.55,1.41,3,3,0,0,1-.2,3,.71.71,0,0,0,0,.79.72.72,0,0,0,.73.3,2.36,2.36,0,0,1,2.57,1.49,2.79,2.79,0,0,1-.79,3.34.69.69,0,0,0-.27.64.72.72,0,0,0,.4.57,3.67,3.67,0,0,1,1.45,1.75C476.94,67.31,476.48,69.39,475.47,69.87Zm-28-3a.72.72,0,0,0-.95-.34l-7.27,3.45a.72.72,0,0,0-.34.94l10.4,22a.72.72,0,0,0,.83.38l.12,0,7.27-3.44a.68.68,0,0,0,.36-.4.75.75,0,0,0,0-.55Zm2.82,24.75L440.5,70.92l6-2.83,9.78,20.66Z" style="fill: rgb(224, 224, 224); transform-origin: 458.569px 70.2077px;" class="animable"></path><path id="freepik--like--inject-601" d="M28.63,163.09a6.15,6.15,0,0,0-.51,1.51,3.6,3.6,0,0,0,3.11,4l14.41,2.84h.09a.58.58,0,0,0,.57-.46l3.21-16.29a.53.53,0,0,0,0-.33c-1.12-2.64-2.83-6.82-3-7.52a22.15,22.15,0,0,1,.88-4.57c.13-.49.23-.87.26-1.06s.05-.82-.93-1.23a4.33,4.33,0,0,0-5.14,1.58,11.71,11.71,0,0,0-2.16,7l-8-1.57a3.32,3.32,0,0,0-3.8,2.67,3.53,3.53,0,0,0,.48,2.61,3.05,3.05,0,0,0-1.79,2.31A3.45,3.45,0,0,0,27.59,158a4.72,4.72,0,0,0-.66,1.7A3.81,3.81,0,0,0,28.63,163.09Zm-.59-3.2a2.86,2.86,0,0,1,.78-1.63.58.58,0,0,0,.2-.52.56.56,0,0,0-.34-.44,2.22,2.22,0,0,1-1.26-2.43,1.88,1.88,0,0,1,1.69-1.65.56.56,0,0,0,.51-.37.58.58,0,0,0-.16-.61,2.43,2.43,0,0,1-.73-2.29,2.16,2.16,0,0,1,2.46-1.78l8.71,1.71a.56.56,0,0,0,.67-.59,10.78,10.78,0,0,1,2-7.07A3.06,3.06,0,0,1,45,140.86a2.72,2.72,0,0,1,1.51.32l-.21.84c-.57,2.19-1.06,4.23-.91,5.06.19,1,2.48,6.42,3,7.59L45.3,170.23l-13.85-2.72a2.51,2.51,0,0,1-2.22-2.69,4.93,4.93,0,0,1,.67-1.69.58.58,0,0,0,.06-.54.54.54,0,0,0-.41-.34A2.56,2.56,0,0,1,28,159.89ZM46.83,173.4a.53.53,0,0,0,.09.42.53.53,0,0,0,.36.24l6.28,1.23.09,0a.58.58,0,0,0,.57-.46l3.73-19a.55.55,0,0,0-.09-.43.57.57,0,0,0-.36-.24L51.22,154a.55.55,0,0,0-.66.44Zm1.22-.34,3.51-17.85,5.17,1-3.51,17.85Z" style="fill: rgb(224, 224, 224); transform-origin: 42.1015px 157.487px;" class="animable"></path><path id="freepik--like--inject-601" d="M458,240a5.26,5.26,0,0,0-.69,1.15,3,3,0,0,0,1.83,3.87l11.33,4.92.08,0a.48.48,0,0,0,.55-.27l5.57-12.81a.45.45,0,0,0,0-.28c-.44-2.37-1.09-6.11-1.07-6.71a18.2,18.2,0,0,1,1.55-3.59c.19-.38.34-.68.4-.83s.19-.67-.55-1.18a3.64,3.64,0,0,0-4.5.37,9.91,9.91,0,0,0-3.05,5.4l-6.3-2.74a2.78,2.78,0,0,0-3.6,1.51,2.94,2.94,0,0,0-.08,2.23,2.54,2.54,0,0,0-1.88,1.58,2.89,2.89,0,0,0,.46,3,3.8,3.8,0,0,0-.85,1.27A3.21,3.21,0,0,0,458,240Zm.1-2.74a2.47,2.47,0,0,1,.93-1.2.46.46,0,0,0,.26-.39.49.49,0,0,0-.19-.42,1.86,1.86,0,0,1-.61-2.22,1.58,1.58,0,0,1,1.69-1.05.48.48,0,0,0,.47-.75,2,2,0,0,1-.19-2,1.82,1.82,0,0,1,2.34-1l6.85,3a.48.48,0,0,0,.42,0,.45.45,0,0,0,.24-.34,9,9,0,0,1,2.89-5.46,2.55,2.55,0,0,1,2.27-.67,2.21,2.21,0,0,1,1.18.53c-.07.15-.18.38-.32.65a15.27,15.27,0,0,0-1.66,4c0,.84.87,5.72,1.07,6.77l-5.32,12.24-10.9-4.74a2.11,2.11,0,0,1-1.33-2.61,4.11,4.11,0,0,1,.85-1.27.47.47,0,0,0,.15-.43.49.49,0,0,0-.28-.36A2.15,2.15,0,0,1,458.13,237.25Zm13,14.49a.48.48,0,0,0,0,.37.43.43,0,0,0,.25.26l4.94,2.15.07,0a.48.48,0,0,0,.55-.28l6.49-14.91a.5.5,0,0,0,0-.36.47.47,0,0,0-.26-.26l-4.93-2.15a.47.47,0,0,0-.63.25Zm1.07-.05,6.1-14,4.06,1.77-6.1,14Z" style="fill: rgb(224, 224, 224); transform-origin: 470.258px 239.102px;" class="animable"></path><path id="freepik--like--inject-601" d="M404.73,38.72c0-.83,1.71-3.81,2-4.38s-2.34-2-4.1-.3a9.12,9.12,0,0,0-2.95,5.46l-6.54-2.92a2.21,2.21,0,0,0-2.86,1.18,2.41,2.41,0,0,0,.21,2.38,2,2,0,0,0-2.13,1.26,2.24,2.24,0,0,0,.71,2.69,2.67,2.67,0,0,0-1.12,1.36,2.47,2.47,0,0,0,1,2.73,4.39,4.39,0,0,0-.95,1.36,2.48,2.48,0,0,0,1.49,3.12l10.81,4.83,5.46-12.23S404.7,39.56,404.73,38.72Zm2.69,6.89-6.35,14.23,4.72,2.1,6.34-14.23Zm-3,14a.92.92,0,1,1,.92-.92A.92.92,0,0,1,404.41,59.59Z" style="fill: rgb(235, 235, 235); transform-origin: 399.993px 47.5871px;" class="animable"></path><path id="freepik--like--inject-601" d="M47.45,65.21,59.77,91.64,83.15,80.75c3-1.43,4.16-4.64,3.13-6.86A9.67,9.67,0,0,0,84.17,71c2-.93,2.76-4.45,2-6a5.92,5.92,0,0,0-2.48-2.93,4.91,4.91,0,0,0,1.44-5.88,4.35,4.35,0,0,0-4.68-2.66,5.27,5.27,0,0,0,.37-5.19c-.78-1.68-3.29-3.86-6.27-2.47L60.47,52.44a19.76,19.76,0,0,0-6.61-11.79c-3.9-3.58-9.49-.42-8.92.81s4.31,7.66,4.41,9.47S47.45,65.21,47.45,65.21Zm-13.9,5.55,14.32,30.76,10.2-4.75L43.73,66Zm15.2,23.63a2,2,0,1,1,2,2A2,2,0,0,1,48.75,94.39Z" style="fill: rgb(235, 235, 235); transform-origin: 60.099px 70.2575px;" class="animable"></path><g id="freepik--check--inject-601" class="animable" style="transform-origin: 464.067px 141.082px;"><path d="M460.55,154.39a3.62,3.62,0,0,1-2.65-1.15l-8.24-8.79a3.64,3.64,0,0,1,5.31-5l5.35,5.71,12.66-16a3.63,3.63,0,1,1,5.7,4.5L463.41,153a3.63,3.63,0,0,1-2.7,1.38Z" style="fill: rgb(235, 235, 235); transform-origin: 464.067px 141.082px;" id="el746opz0n1rl" class="animable"></path></g><g id="freepik--check--inject-601" class="animable" style="transform-origin: 44.8364px 231.735px;"><path d="M41.38,245a3.62,3.62,0,0,1-2.66-1.15L30.49,235a3.63,3.63,0,1,1,5.3-5l5.35,5.71,12.66-16a3.64,3.64,0,0,1,5.71,4.5L44.23,243.6a3.63,3.63,0,0,1-2.7,1.38Z" style="fill: rgb(235, 235, 235); transform-origin: 44.8364px 231.735px;" id="elh5gd48bmlx" class="animable"></path></g><g id="freepik--check--inject-601" class="animable" style="transform-origin: 140.545px 52.7673px;"><path d="M136.52,68.83a4.93,4.93,0,0,1-3.61-1.57l-9.49-10.13a4.93,4.93,0,0,1,3.77-8.3,4.85,4.85,0,0,1,3.44,1.56l5.57,5.94,14-17.78a4.88,4.88,0,0,1,3.29-1.85,5,5,0,0,1,3.64,1,4.93,4.93,0,0,1,.81,6.93L140.39,67a4.93,4.93,0,0,1-3.67,1.87ZM127,50.32a3.41,3.41,0,0,0-2.34.93,3.45,3.45,0,0,0-.16,4.86L134,66.24a3.44,3.44,0,0,0,2.51,1.09h.13a3.41,3.41,0,0,0,2.56-1.3l17.6-22.29a3.44,3.44,0,1,0-5.4-4.25L136.29,58.63l-6.76-7.22a3.38,3.38,0,0,0-2.39-1.08Z" style="fill: rgb(224, 224, 224); transform-origin: 140.545px 52.7673px;" id="elcqeuosh1zg" class="animable"></path></g></g><defs>     <filter id="active" height="200%">         <feMorphology in="SourceAlpha" result="DILATED" operator="dilate" radius="2"></feMorphology>                <feFlood flood-color="#32DFEC" flood-opacity="1" result="PINK"></feFlood>        <feComposite in="PINK" in2="DILATED" operator="in" result="OUTLINE"></feComposite>        <feMerge>            <feMergeNode in="OUTLINE"></feMergeNode>            <feMergeNode in="SourceGraphic"></feMergeNode>        </feMerge>    </filter>    <filter id="hover" height="200%">        <feMorphology in="SourceAlpha" result="DILATED" operator="dilate" radius="2"></feMorphology>                <feFlood flood-color="#ff0000" flood-opacity="0.5" result="PINK"></feFlood>        <feComposite in="PINK" in2="DILATED" operator="in" result="OUTLINE"></feComposite>        <feMerge>            <feMergeNode in="OUTLINE"></feMergeNode>            <feMergeNode in="SourceGraphic"></feMergeNode>        </feMerge>            <feColorMatrix type="matrix" values="0   0   0   0   0                0   1   0   0   0                0   0   0   0   0                0   0   0   1   0 "></feColorMatrix>    </filter></defs></svg>